%TF.GenerationSoftware,KiCad,Pcbnew,9.0.0*%
%TF.CreationDate,2025-10-31T12:42:59+01:00*%
%TF.ProjectId,popcorn_roaster,706f7063-6f72-46e5-9f72-6f6173746572,rev?*%
%TF.SameCoordinates,Original*%
%TF.FileFunction,Copper,L2,Bot*%
%TF.FilePolarity,Positive*%
%FSLAX46Y46*%
G04 Gerber Fmt 4.6, Leading zero omitted, Abs format (unit mm)*
G04 Created by KiCad (PCBNEW 9.0.0) date 2025-10-31 12:42:59*
%MOMM*%
%LPD*%
G01*
G04 APERTURE LIST*
G04 Aperture macros list*
%AMRoundRect*
0 Rectangle with rounded corners*
0 $1 Rounding radius*
0 $2 $3 $4 $5 $6 $7 $8 $9 X,Y pos of 4 corners*
0 Add a 4 corners polygon primitive as box body*
4,1,4,$2,$3,$4,$5,$6,$7,$8,$9,$2,$3,0*
0 Add four circle primitives for the rounded corners*
1,1,$1+$1,$2,$3*
1,1,$1+$1,$4,$5*
1,1,$1+$1,$6,$7*
1,1,$1+$1,$8,$9*
0 Add four rect primitives between the rounded corners*
20,1,$1+$1,$2,$3,$4,$5,0*
20,1,$1+$1,$4,$5,$6,$7,0*
20,1,$1+$1,$6,$7,$8,$9,0*
20,1,$1+$1,$8,$9,$2,$3,0*%
G04 Aperture macros list end*
%TA.AperFunction,ComponentPad*%
%ADD10RoundRect,0.250000X1.050000X1.050000X-1.050000X1.050000X-1.050000X-1.050000X1.050000X-1.050000X0*%
%TD*%
%TA.AperFunction,ComponentPad*%
%ADD11C,2.600000*%
%TD*%
%TA.AperFunction,ComponentPad*%
%ADD12C,2.000000*%
%TD*%
%TA.AperFunction,ComponentPad*%
%ADD13RoundRect,0.250000X-1.050000X-1.050000X1.050000X-1.050000X1.050000X1.050000X-1.050000X1.050000X0*%
%TD*%
%TA.AperFunction,ComponentPad*%
%ADD14R,1.905000X2.000000*%
%TD*%
%TA.AperFunction,ComponentPad*%
%ADD15O,1.905000X2.000000*%
%TD*%
%TA.AperFunction,ComponentPad*%
%ADD16C,2.200000*%
%TD*%
%TA.AperFunction,ComponentPad*%
%ADD17C,3.200000*%
%TD*%
%TA.AperFunction,ComponentPad*%
%ADD18C,1.800000*%
%TD*%
%TA.AperFunction,ComponentPad*%
%ADD19C,1.850000*%
%TD*%
%TA.AperFunction,ComponentPad*%
%ADD20R,1.700000X1.700000*%
%TD*%
%TA.AperFunction,ComponentPad*%
%ADD21C,1.700000*%
%TD*%
%TA.AperFunction,ViaPad*%
%ADD22C,0.800000*%
%TD*%
%TA.AperFunction,ViaPad*%
%ADD23C,0.600000*%
%TD*%
%TA.AperFunction,Conductor*%
%ADD24C,0.800000*%
%TD*%
%TA.AperFunction,Conductor*%
%ADD25C,0.400000*%
%TD*%
%TA.AperFunction,Conductor*%
%ADD26C,0.200000*%
%TD*%
G04 APERTURE END LIST*
D10*
%TO.P,D11,1,K*%
%TO.N,Net-(D11-K)*%
X29650000Y-22300000D03*
D11*
%TO.P,D11,2,A*%
%TO.N,/Smart Roaster/heat_white*%
X16950000Y-22300000D03*
%TD*%
D12*
%TO.P,TP1,1,1*%
%TO.N,/Smart Roaster/heat_blue*%
X5700000Y-16500000D03*
%TD*%
D13*
%TO.P,D8,1,K*%
%TO.N,/Smart Roaster/heat_blue*%
X21700000Y-3600000D03*
D11*
%TO.P,D8,2,A*%
%TO.N,Net-(D10-A)*%
X34400000Y-3600000D03*
%TD*%
D14*
%TO.P,D6,1,A1*%
%TO.N,/Smart Roaster/heat_blue*%
X39160000Y-21630000D03*
D15*
%TO.P,D6,2,A2*%
%TO.N,Net-(D6-A2)*%
X41700000Y-21630000D03*
%TO.P,D6,3,G*%
%TO.N,Net-(D6-G)*%
X44240000Y-21630000D03*
%TD*%
D12*
%TO.P,TP5,1,1*%
%TO.N,Net-(D6-A2)*%
X5700000Y-22500000D03*
%TD*%
%TO.P,TP2,1,1*%
%TO.N,/Smart Roaster/N (blue)*%
X5700000Y-10500000D03*
%TD*%
%TO.P,TP4,1,1*%
%TO.N,GND*%
X54700000Y-23100000D03*
%TD*%
D16*
%TO.P,U2,1,AC_L*%
%TO.N,Net-(D6-A2)*%
X5700000Y-30450000D03*
%TO.P,U2,2,AC_N*%
%TO.N,/Smart Roaster/N (blue)*%
X5700000Y-37200000D03*
D17*
%TO.P,U2,3,Vout+*%
%TO.N,+24V*%
X81700000Y-71700000D03*
%TO.P,U2,4,Vout-*%
%TO.N,GND*%
X81700000Y-66200000D03*
%TD*%
D18*
%TO.P,J4,1,Pin_1*%
%TO.N,/Smart Roaster/TC-*%
X65000000Y-17500000D03*
%TO.P,J4,2,Pin_2*%
%TO.N,/Smart Roaster/TC+*%
X67500000Y-22500000D03*
%TO.P,J4,3,Pin_3*%
%TO.N,+3V3*%
X70000000Y-17500000D03*
%TO.P,J4,4,Pin_4*%
%TO.N,/Smart Roaster/POCI*%
X72500000Y-22500000D03*
%TO.P,J4,5,Pin_5*%
%TO.N,/Smart Roaster/nCS*%
X75000000Y-17500000D03*
%TO.P,J4,6,Pin_6*%
%TO.N,/Smart Roaster/SCK*%
X77500000Y-22500000D03*
%TO.P,J4,7,Pin_7*%
%TO.N,/Smart Roaster/HEAT_ON*%
X80000000Y-17500000D03*
%TO.P,J4,8,Pin_8*%
%TO.N,GND*%
X82500000Y-22500000D03*
%TD*%
D12*
%TO.P,TP3,1,1*%
%TO.N,+24V*%
X61700000Y-23100000D03*
%TD*%
D10*
%TO.P,D9,1,K*%
%TO.N,Net-(D11-K)*%
X34400000Y-9400000D03*
D11*
%TO.P,D9,2,A*%
%TO.N,/Smart Roaster/heat_blue*%
X21700000Y-9400000D03*
%TD*%
D18*
%TO.P,J3,1,Pin_1*%
%TO.N,Net-(J3-Pin_1)*%
X22400000Y-67850000D03*
%TO.P,J3,2,Pin_2*%
%TO.N,Net-(J3-Pin_2)*%
X24900000Y-72850000D03*
%TO.P,J3,3,Pin_3*%
%TO.N,+3V3_mc*%
X27400000Y-67850000D03*
%TO.P,J3,4,Pin_4*%
%TO.N,/Smart Roaster/POCI_mc*%
X29900000Y-72850000D03*
%TO.P,J3,5,Pin_5*%
%TO.N,/Smart Roaster/nCS_mc*%
X32400000Y-67850000D03*
%TO.P,J3,6,Pin_6*%
%TO.N,/Smart Roaster/SCK_mc*%
X34900000Y-72850000D03*
%TO.P,J3,7,Pin_7*%
%TO.N,/Smart Roaster/HEAT_ON_mc*%
X37400000Y-67850000D03*
%TO.P,J3,8,Pin_8*%
%TO.N,GND_mc*%
X39900000Y-72850000D03*
%TD*%
D12*
%TO.P,TP8,1,1*%
%TO.N,Net-(D10-A)*%
X31800000Y-14600000D03*
%TD*%
D19*
%TO.P,U1,1,Vin*%
%TO.N,Net-(U1-Vin)*%
X98075000Y-48740000D03*
%TO.P,U1,2,GND*%
%TO.N,GND*%
X98075000Y-46200000D03*
%TO.P,U1,3,Vout*%
%TO.N,+3V3*%
X98075000Y-43660000D03*
%TD*%
D12*
%TO.P,TP6,1,1*%
%TO.N,/Smart Roaster/heat_white*%
X12700000Y-16500000D03*
%TD*%
D20*
%TO.P,U5,1,EN*%
%TO.N,unconnected-(U5-EN-Pad1)*%
X51250000Y-76000000D03*
D21*
%TO.P,U5,2,VP*%
%TO.N,unconnected-(U5-VP-Pad2)*%
X53790000Y-76000000D03*
%TO.P,U5,3,VN*%
%TO.N,unconnected-(U5-VN-Pad3)*%
X56330000Y-76000000D03*
%TO.P,U5,4,D34*%
%TO.N,unconnected-(U5-D34-Pad4)*%
X58870000Y-76000000D03*
%TO.P,U5,5,D35*%
%TO.N,unconnected-(U5-D35-Pad5)*%
X61410000Y-76000000D03*
%TO.P,U5,6,D32*%
%TO.N,unconnected-(U5-D32-Pad6)*%
X63950000Y-76000000D03*
%TO.P,U5,7,D33*%
%TO.N,unconnected-(U5-D33-Pad7)*%
X66490000Y-76000000D03*
%TO.P,U5,8,D25*%
%TO.N,unconnected-(U5-D25-Pad8)*%
X69030000Y-76000000D03*
%TO.P,U5,9,D26*%
%TO.N,unconnected-(U5-D26-Pad9)*%
X71570000Y-76000000D03*
%TO.P,U5,10,D27*%
%TO.N,unconnected-(U5-D27-Pad10)*%
X74110000Y-76000000D03*
%TO.P,U5,11,D14*%
%TO.N,unconnected-(U5-D14-Pad11)*%
X76650000Y-76000000D03*
%TO.P,U5,12,D12*%
%TO.N,unconnected-(U5-D12-Pad12)*%
X79190000Y-76000000D03*
%TO.P,U5,13,D13*%
%TO.N,unconnected-(U5-D13-Pad13)*%
X81730000Y-76000000D03*
%TO.P,U5,14,GND*%
%TO.N,unconnected-(U5-GND-Pad14)*%
X84270000Y-76000000D03*
%TO.P,U5,15,VIN*%
%TO.N,unconnected-(U5-VIN-Pad15)*%
X86810000Y-76000000D03*
%TO.P,U5,16,3V3*%
%TO.N,+3V3_mc*%
X86810000Y-51000000D03*
%TO.P,U5,17,GND*%
%TO.N,GND_mc*%
X84270000Y-51000000D03*
%TO.P,U5,18,D15*%
%TO.N,unconnected-(U5-D15-Pad18)*%
X81730000Y-51000000D03*
%TO.P,U5,19,D2*%
%TO.N,/Smart Roaster/nCS_mc*%
X79190000Y-51000000D03*
%TO.P,U5,20,D4*%
%TO.N,unconnected-(U5-D4-Pad20)*%
X76650000Y-51000000D03*
%TO.P,U5,21,D16*%
%TO.N,unconnected-(U5-D16-Pad21)*%
X74110000Y-51000000D03*
%TO.P,U5,22,D17*%
%TO.N,/Smart Roaster/HEAT_ON_mc*%
X71570000Y-51000000D03*
%TO.P,U5,23,D5*%
%TO.N,unconnected-(U5-D5-Pad23)*%
X69030000Y-51000000D03*
%TO.P,U5,24,D18*%
%TO.N,/Smart Roaster/SCK_mc*%
X66490000Y-51000000D03*
%TO.P,U5,25,D19*%
%TO.N,/Smart Roaster/POCI_mc*%
X63950000Y-51000000D03*
%TO.P,U5,26,D21*%
%TO.N,Net-(J3-Pin_2)*%
X61410000Y-51000000D03*
%TO.P,U5,27,RX0*%
%TO.N,unconnected-(U5-RX0-Pad27)*%
X58870000Y-51000000D03*
%TO.P,U5,28,TX0*%
%TO.N,unconnected-(U5-TX0-Pad28)*%
X56330000Y-51000000D03*
%TO.P,U5,29,D22*%
%TO.N,Net-(J3-Pin_1)*%
X53790000Y-51000000D03*
%TO.P,U5,30,D23*%
%TO.N,unconnected-(U5-D23-Pad30)*%
X51250000Y-51000000D03*
%TD*%
D12*
%TO.P,TP7,1,1*%
%TO.N,Net-(D11-K)*%
X34500000Y-22500000D03*
%TD*%
D13*
%TO.P,D10,1,K*%
%TO.N,/Smart Roaster/heat_white*%
X16950000Y-16500000D03*
D11*
%TO.P,D10,2,A*%
%TO.N,Net-(D10-A)*%
X29650000Y-16500000D03*
%TD*%
D22*
%TO.N,GND*%
X61550000Y-10900000D03*
X94975000Y-56500000D03*
X59250000Y-16400000D03*
X95000000Y-59900000D03*
X95000000Y-52500000D03*
X95000000Y-63900000D03*
D23*
X70300000Y-10200000D03*
X73000000Y-6390000D03*
D22*
%TO.N,+3V3*%
X55750000Y-19700000D03*
%TO.N,/Smart Roaster/SCK_mc*%
X31700000Y-57400000D03*
%TO.N,/Smart Roaster/nCS_mc*%
X31700000Y-59150000D03*
%TD*%
D24*
%TO.N,+3V3*%
X55750000Y-20650000D02*
X55750000Y-19700000D01*
X61200000Y-26100000D02*
X55750000Y-20650000D01*
X70000000Y-26100000D02*
X61200000Y-26100000D01*
X70000000Y-26100000D02*
X70000000Y-17500000D01*
X87560000Y-43660000D02*
X70000000Y-26100000D01*
X98075000Y-43660000D02*
X87560000Y-43660000D01*
D25*
%TO.N,GND_mc*%
X62370000Y-72900000D02*
X40900000Y-72900000D01*
X84270000Y-51000000D02*
X62370000Y-72900000D01*
%TO.N,+3V3_mc*%
X28349000Y-74749000D02*
X27400000Y-73800000D01*
X27400000Y-73800000D02*
X27400000Y-67850000D01*
X63061000Y-74749000D02*
X28349000Y-74749000D01*
X86810000Y-51000000D02*
X63061000Y-74749000D01*
D26*
%TO.N,/Smart Roaster/SCK_mc*%
X30625000Y-68575000D02*
X34900000Y-72850000D01*
X31700000Y-57400000D02*
X30625000Y-58475000D01*
X30625000Y-58475000D02*
X30625000Y-68575000D01*
%TO.N,/Smart Roaster/nCS_mc*%
X32400000Y-59825000D02*
X31725000Y-59150000D01*
X32400000Y-67850000D02*
X32400000Y-59825000D01*
X59740000Y-70450000D02*
X35000000Y-70450000D01*
X35000000Y-70450000D02*
X32400000Y-67850000D01*
X79190000Y-51000000D02*
X59740000Y-70450000D01*
%TD*%
%TA.AperFunction,Conductor*%
%TO.N,GND*%
G36*
X97242539Y-2519685D02*
G01*
X97288294Y-2572489D01*
X97299500Y-2624000D01*
X97299500Y-4684951D01*
X97333629Y-5053276D01*
X97333629Y-5053277D01*
X97401603Y-5416902D01*
X97502831Y-5772679D01*
X97502830Y-5772679D01*
X97590798Y-5999750D01*
X97636458Y-6117612D01*
X97801341Y-6448740D01*
X97996072Y-6763243D01*
X98218992Y-7058436D01*
X98468198Y-7331802D01*
X98741564Y-7581008D01*
X99036757Y-7803928D01*
X99351260Y-7998659D01*
X99682388Y-8163542D01*
X100027318Y-8297168D01*
X100383097Y-8398395D01*
X100383097Y-8398396D01*
X100383099Y-8398396D01*
X100383105Y-8398398D01*
X100746715Y-8466369D01*
X100746720Y-8466369D01*
X100746723Y-8466370D01*
X100924262Y-8482821D01*
X101115046Y-8500500D01*
X101115049Y-8500500D01*
X103076000Y-8500500D01*
X103143039Y-8520185D01*
X103188794Y-8572989D01*
X103200000Y-8624500D01*
X103200000Y-69275500D01*
X103180315Y-69342539D01*
X103127511Y-69388294D01*
X103076000Y-69399500D01*
X101365892Y-69399500D01*
X101300000Y-69399500D01*
X101115046Y-69399500D01*
X101048417Y-69405674D01*
X100746723Y-69433629D01*
X100746722Y-69433629D01*
X100383097Y-69501603D01*
X100383097Y-69501604D01*
X100027320Y-69602831D01*
X99682387Y-69736458D01*
X99351259Y-69901341D01*
X99351251Y-69901346D01*
X99036759Y-70096070D01*
X98741570Y-70318987D01*
X98741561Y-70318994D01*
X98468198Y-70568198D01*
X98218994Y-70841561D01*
X98218987Y-70841570D01*
X97996070Y-71136759D01*
X97801346Y-71451251D01*
X97801341Y-71451259D01*
X97636458Y-71782387D01*
X97502831Y-72127320D01*
X97401604Y-72483097D01*
X97401603Y-72483097D01*
X97333629Y-72846722D01*
X97333629Y-72846723D01*
X97299500Y-73215048D01*
X97299500Y-75576000D01*
X97279815Y-75643039D01*
X97227011Y-75688794D01*
X97175500Y-75700000D01*
X88222614Y-75700000D01*
X88155575Y-75680315D01*
X88109820Y-75627511D01*
X88104687Y-75614330D01*
X88061557Y-75481588D01*
X87965051Y-75292184D01*
X87965049Y-75292181D01*
X87965048Y-75292179D01*
X87840109Y-75120213D01*
X87689786Y-74969890D01*
X87517820Y-74844951D01*
X87328414Y-74748444D01*
X87328413Y-74748443D01*
X87328412Y-74748443D01*
X87126243Y-74682754D01*
X87126241Y-74682753D01*
X87126240Y-74682753D01*
X86964957Y-74657208D01*
X86916287Y-74649500D01*
X86703713Y-74649500D01*
X86655042Y-74657208D01*
X86493760Y-74682753D01*
X86291585Y-74748444D01*
X86102179Y-74844951D01*
X85930213Y-74969890D01*
X85779890Y-75120213D01*
X85654949Y-75292182D01*
X85650484Y-75300946D01*
X85602509Y-75351742D01*
X85534688Y-75368536D01*
X85468553Y-75345998D01*
X85429516Y-75300946D01*
X85425050Y-75292182D01*
X85300109Y-75120213D01*
X85149786Y-74969890D01*
X84977820Y-74844951D01*
X84788414Y-74748444D01*
X84788413Y-74748443D01*
X84788412Y-74748443D01*
X84586243Y-74682754D01*
X84586241Y-74682753D01*
X84586240Y-74682753D01*
X84424957Y-74657208D01*
X84376287Y-74649500D01*
X84163713Y-74649500D01*
X84115042Y-74657208D01*
X83953760Y-74682753D01*
X83751585Y-74748444D01*
X83562179Y-74844951D01*
X83390213Y-74969890D01*
X83239890Y-75120213D01*
X83114949Y-75292182D01*
X83110484Y-75300946D01*
X83062509Y-75351742D01*
X82994688Y-75368536D01*
X82928553Y-75345998D01*
X82889516Y-75300946D01*
X82885050Y-75292182D01*
X82760109Y-75120213D01*
X82609786Y-74969890D01*
X82437820Y-74844951D01*
X82248414Y-74748444D01*
X82248413Y-74748443D01*
X82248412Y-74748443D01*
X82046243Y-74682754D01*
X82046241Y-74682753D01*
X82046240Y-74682753D01*
X81884957Y-74657208D01*
X81836287Y-74649500D01*
X81623713Y-74649500D01*
X81575042Y-74657208D01*
X81413760Y-74682753D01*
X81211585Y-74748444D01*
X81022179Y-74844951D01*
X80850213Y-74969890D01*
X80699890Y-75120213D01*
X80574949Y-75292182D01*
X80570484Y-75300946D01*
X80522509Y-75351742D01*
X80454688Y-75368536D01*
X80388553Y-75345998D01*
X80349516Y-75300946D01*
X80345050Y-75292182D01*
X80220109Y-75120213D01*
X80069786Y-74969890D01*
X79897820Y-74844951D01*
X79708414Y-74748444D01*
X79708413Y-74748443D01*
X79708412Y-74748443D01*
X79506243Y-74682754D01*
X79506241Y-74682753D01*
X79506240Y-74682753D01*
X79344957Y-74657208D01*
X79296287Y-74649500D01*
X79083713Y-74649500D01*
X79035042Y-74657208D01*
X78873760Y-74682753D01*
X78671585Y-74748444D01*
X78482179Y-74844951D01*
X78310213Y-74969890D01*
X78159890Y-75120213D01*
X78034949Y-75292182D01*
X78030484Y-75300946D01*
X77982509Y-75351742D01*
X77914688Y-75368536D01*
X77848553Y-75345998D01*
X77809516Y-75300946D01*
X77805050Y-75292182D01*
X77680109Y-75120213D01*
X77529786Y-74969890D01*
X77357820Y-74844951D01*
X77168414Y-74748444D01*
X77168413Y-74748443D01*
X77168412Y-74748443D01*
X76966243Y-74682754D01*
X76966241Y-74682753D01*
X76966240Y-74682753D01*
X76804957Y-74657208D01*
X76756287Y-74649500D01*
X76543713Y-74649500D01*
X76495042Y-74657208D01*
X76333760Y-74682753D01*
X76131585Y-74748444D01*
X75942179Y-74844951D01*
X75770213Y-74969890D01*
X75619890Y-75120213D01*
X75494949Y-75292182D01*
X75490484Y-75300946D01*
X75442509Y-75351742D01*
X75374688Y-75368536D01*
X75308553Y-75345998D01*
X75269516Y-75300946D01*
X75265050Y-75292182D01*
X75140109Y-75120213D01*
X74989786Y-74969890D01*
X74817820Y-74844951D01*
X74628414Y-74748444D01*
X74628413Y-74748443D01*
X74628412Y-74748443D01*
X74426243Y-74682754D01*
X74426241Y-74682753D01*
X74426240Y-74682753D01*
X74264957Y-74657208D01*
X74216287Y-74649500D01*
X74003713Y-74649500D01*
X73955042Y-74657208D01*
X73793760Y-74682753D01*
X73591585Y-74748444D01*
X73402179Y-74844951D01*
X73230213Y-74969890D01*
X73079890Y-75120213D01*
X72954949Y-75292182D01*
X72950484Y-75300946D01*
X72902509Y-75351742D01*
X72834688Y-75368536D01*
X72768553Y-75345998D01*
X72729516Y-75300946D01*
X72725050Y-75292182D01*
X72600109Y-75120213D01*
X72449786Y-74969890D01*
X72277820Y-74844951D01*
X72088414Y-74748444D01*
X72088413Y-74748443D01*
X72088412Y-74748443D01*
X71886243Y-74682754D01*
X71886241Y-74682753D01*
X71886240Y-74682753D01*
X71724957Y-74657208D01*
X71676287Y-74649500D01*
X71463713Y-74649500D01*
X71415042Y-74657208D01*
X71253760Y-74682753D01*
X71051585Y-74748444D01*
X70862179Y-74844951D01*
X70690213Y-74969890D01*
X70539890Y-75120213D01*
X70414949Y-75292182D01*
X70410484Y-75300946D01*
X70362509Y-75351742D01*
X70294688Y-75368536D01*
X70228553Y-75345998D01*
X70189516Y-75300946D01*
X70185050Y-75292182D01*
X70060109Y-75120213D01*
X69909786Y-74969890D01*
X69737820Y-74844951D01*
X69548414Y-74748444D01*
X69548413Y-74748443D01*
X69548412Y-74748443D01*
X69346243Y-74682754D01*
X69346241Y-74682753D01*
X69346240Y-74682753D01*
X69184957Y-74657208D01*
X69136287Y-74649500D01*
X68923713Y-74649500D01*
X68875042Y-74657208D01*
X68713760Y-74682753D01*
X68511585Y-74748444D01*
X68322179Y-74844951D01*
X68150213Y-74969890D01*
X67999890Y-75120213D01*
X67874949Y-75292182D01*
X67870484Y-75300946D01*
X67822509Y-75351742D01*
X67754688Y-75368536D01*
X67688553Y-75345998D01*
X67649516Y-75300946D01*
X67645050Y-75292182D01*
X67520109Y-75120213D01*
X67369786Y-74969890D01*
X67197820Y-74844951D01*
X67008414Y-74748444D01*
X67008413Y-74748443D01*
X67008412Y-74748443D01*
X66806243Y-74682754D01*
X66806241Y-74682753D01*
X66806240Y-74682753D01*
X66644957Y-74657208D01*
X66596287Y-74649500D01*
X66383713Y-74649500D01*
X66335042Y-74657208D01*
X66173760Y-74682753D01*
X65971585Y-74748444D01*
X65782179Y-74844951D01*
X65610213Y-74969890D01*
X65459890Y-75120213D01*
X65334949Y-75292182D01*
X65330484Y-75300946D01*
X65282509Y-75351742D01*
X65214688Y-75368536D01*
X65148553Y-75345998D01*
X65109516Y-75300946D01*
X65105050Y-75292182D01*
X64980109Y-75120213D01*
X64829786Y-74969890D01*
X64657820Y-74844951D01*
X64468416Y-74748444D01*
X64346725Y-74708904D01*
X64289050Y-74669466D01*
X64261852Y-74605107D01*
X64273767Y-74536261D01*
X64297360Y-74503295D01*
X67238323Y-71562332D01*
X79599500Y-71562332D01*
X79599500Y-71837667D01*
X79599501Y-71837684D01*
X79635438Y-72110655D01*
X79635439Y-72110660D01*
X79635440Y-72110666D01*
X79654016Y-72179993D01*
X79706704Y-72376630D01*
X79812075Y-72631017D01*
X79812080Y-72631028D01*
X79849403Y-72695672D01*
X79949751Y-72869479D01*
X79949753Y-72869482D01*
X79949754Y-72869483D01*
X80117370Y-73087926D01*
X80117376Y-73087933D01*
X80312066Y-73282623D01*
X80312072Y-73282628D01*
X80530521Y-73450249D01*
X80670606Y-73531127D01*
X80768971Y-73587919D01*
X80768976Y-73587921D01*
X80768979Y-73587923D01*
X81023368Y-73693295D01*
X81289334Y-73764560D01*
X81562326Y-73800500D01*
X81562333Y-73800500D01*
X81837667Y-73800500D01*
X81837674Y-73800500D01*
X82110666Y-73764560D01*
X82376632Y-73693295D01*
X82631021Y-73587923D01*
X82869479Y-73450249D01*
X83087928Y-73282628D01*
X83101684Y-73268872D01*
X91999500Y-73268872D01*
X91999500Y-73531127D01*
X92019254Y-73681166D01*
X92033730Y-73791116D01*
X92092964Y-74012181D01*
X92101602Y-74044418D01*
X92101605Y-74044428D01*
X92201953Y-74286690D01*
X92201958Y-74286700D01*
X92333075Y-74513803D01*
X92492718Y-74721851D01*
X92492726Y-74721860D01*
X92678140Y-74907274D01*
X92678148Y-74907281D01*
X92886196Y-75066924D01*
X93113299Y-75198041D01*
X93113309Y-75198046D01*
X93340567Y-75292179D01*
X93355581Y-75298398D01*
X93608884Y-75366270D01*
X93868880Y-75400500D01*
X93868887Y-75400500D01*
X94131113Y-75400500D01*
X94131120Y-75400500D01*
X94391116Y-75366270D01*
X94644419Y-75298398D01*
X94886697Y-75198043D01*
X95113803Y-75066924D01*
X95321851Y-74907282D01*
X95321855Y-74907277D01*
X95321860Y-74907274D01*
X95507274Y-74721860D01*
X95507277Y-74721855D01*
X95507282Y-74721851D01*
X95666924Y-74513803D01*
X95798043Y-74286697D01*
X95898398Y-74044419D01*
X95966270Y-73791116D01*
X96000500Y-73531120D01*
X96000500Y-73268880D01*
X95966270Y-73008884D01*
X95898398Y-72755581D01*
X95873583Y-72695672D01*
X95798046Y-72513309D01*
X95798041Y-72513299D01*
X95666924Y-72286196D01*
X95507281Y-72078148D01*
X95507274Y-72078140D01*
X95321860Y-71892726D01*
X95321851Y-71892718D01*
X95113803Y-71733075D01*
X94886700Y-71601958D01*
X94886690Y-71601953D01*
X94644428Y-71501605D01*
X94644421Y-71501603D01*
X94644419Y-71501602D01*
X94391116Y-71433730D01*
X94333339Y-71426123D01*
X94131127Y-71399500D01*
X94131120Y-71399500D01*
X93868880Y-71399500D01*
X93868872Y-71399500D01*
X93637772Y-71429926D01*
X93608884Y-71433730D01*
X93355581Y-71501602D01*
X93355571Y-71501605D01*
X93113309Y-71601953D01*
X93113299Y-71601958D01*
X92886196Y-71733075D01*
X92678148Y-71892718D01*
X92492718Y-72078148D01*
X92333075Y-72286196D01*
X92201958Y-72513299D01*
X92201953Y-72513309D01*
X92101605Y-72755571D01*
X92101602Y-72755581D01*
X92033730Y-73008885D01*
X91999500Y-73268872D01*
X83101684Y-73268872D01*
X83138745Y-73231811D01*
X83193417Y-73177140D01*
X83282623Y-73087933D01*
X83282628Y-73087928D01*
X83450249Y-72869479D01*
X83587923Y-72631021D01*
X83693295Y-72376632D01*
X83764560Y-72110666D01*
X83800500Y-71837674D01*
X83800500Y-71562326D01*
X83764560Y-71289334D01*
X83693295Y-71023368D01*
X83587923Y-70768979D01*
X83587921Y-70768976D01*
X83587919Y-70768971D01*
X83524900Y-70659820D01*
X83450249Y-70530521D01*
X83324309Y-70366392D01*
X83282629Y-70312073D01*
X83282623Y-70312066D01*
X83087933Y-70117376D01*
X83087926Y-70117370D01*
X82869483Y-69949754D01*
X82869482Y-69949753D01*
X82869479Y-69949751D01*
X82766720Y-69890423D01*
X82631028Y-69812080D01*
X82631017Y-69812075D01*
X82376630Y-69706704D01*
X82243649Y-69671072D01*
X82110666Y-69635440D01*
X82110660Y-69635439D01*
X82110655Y-69635438D01*
X81837684Y-69599501D01*
X81837679Y-69599500D01*
X81837674Y-69599500D01*
X81562326Y-69599500D01*
X81562320Y-69599500D01*
X81562315Y-69599501D01*
X81289344Y-69635438D01*
X81289337Y-69635439D01*
X81289334Y-69635440D01*
X81233125Y-69650500D01*
X81023369Y-69706704D01*
X80768982Y-69812075D01*
X80768971Y-69812080D01*
X80530516Y-69949754D01*
X80312073Y-70117370D01*
X80312066Y-70117376D01*
X80117376Y-70312066D01*
X80117370Y-70312073D01*
X79949754Y-70530516D01*
X79812080Y-70768971D01*
X79812075Y-70768982D01*
X79706704Y-71023369D01*
X79635441Y-71289331D01*
X79635438Y-71289344D01*
X79599501Y-71562315D01*
X79599500Y-71562332D01*
X67238323Y-71562332D01*
X72738297Y-66062358D01*
X79600000Y-66062358D01*
X79600000Y-66337641D01*
X79635930Y-66610565D01*
X79707180Y-66876471D01*
X79812520Y-67130787D01*
X79812527Y-67130802D01*
X79950163Y-67369196D01*
X80048758Y-67497686D01*
X80763708Y-66782736D01*
X80860967Y-66916602D01*
X80983398Y-67039033D01*
X81117262Y-67136290D01*
X80402312Y-67851240D01*
X80530804Y-67949836D01*
X80769197Y-68087472D01*
X80769212Y-68087479D01*
X81023528Y-68192819D01*
X81289434Y-68264069D01*
X81562358Y-68300000D01*
X81837642Y-68300000D01*
X82110565Y-68264069D01*
X82376471Y-68192819D01*
X82630787Y-68087479D01*
X82630802Y-68087472D01*
X82869194Y-67949836D01*
X82869211Y-67949825D01*
X82997686Y-67851241D01*
X82997686Y-67851239D01*
X82282737Y-67136290D01*
X82416602Y-67039033D01*
X82539033Y-66916602D01*
X82636290Y-66782737D01*
X83351239Y-67497686D01*
X83351241Y-67497686D01*
X83449825Y-67369211D01*
X83449836Y-67369194D01*
X83507757Y-67268872D01*
X87549500Y-67268872D01*
X87549500Y-67531127D01*
X87576123Y-67733339D01*
X87583730Y-67791116D01*
X87626256Y-67949825D01*
X87651602Y-68044418D01*
X87651605Y-68044428D01*
X87751953Y-68286690D01*
X87751958Y-68286700D01*
X87883075Y-68513803D01*
X88042718Y-68721851D01*
X88042726Y-68721860D01*
X88228140Y-68907274D01*
X88228148Y-68907281D01*
X88436196Y-69066924D01*
X88663299Y-69198041D01*
X88663309Y-69198046D01*
X88850300Y-69275500D01*
X88905581Y-69298398D01*
X89158884Y-69366270D01*
X89418880Y-69400500D01*
X89418887Y-69400500D01*
X89681113Y-69400500D01*
X89681120Y-69400500D01*
X89941116Y-69366270D01*
X90194419Y-69298398D01*
X90436697Y-69198043D01*
X90663803Y-69066924D01*
X90871851Y-68907282D01*
X90871855Y-68907277D01*
X90871860Y-68907274D01*
X91057274Y-68721860D01*
X91057277Y-68721855D01*
X91057282Y-68721851D01*
X91216924Y-68513803D01*
X91348043Y-68286697D01*
X91448398Y-68044419D01*
X91516270Y-67791116D01*
X91550500Y-67531120D01*
X91550500Y-67268880D01*
X91516270Y-67008884D01*
X91448398Y-66755581D01*
X91393172Y-66622253D01*
X91348046Y-66513309D01*
X91348041Y-66513299D01*
X91216924Y-66286196D01*
X91057281Y-66078148D01*
X91057274Y-66078140D01*
X90871860Y-65892726D01*
X90871851Y-65892718D01*
X90663803Y-65733075D01*
X90436700Y-65601958D01*
X90436690Y-65601953D01*
X90194428Y-65501605D01*
X90194421Y-65501603D01*
X90194419Y-65501602D01*
X89941116Y-65433730D01*
X89883339Y-65426123D01*
X89681127Y-65399500D01*
X89681120Y-65399500D01*
X89418880Y-65399500D01*
X89418872Y-65399500D01*
X89187772Y-65429926D01*
X89158884Y-65433730D01*
X88973520Y-65483398D01*
X88905581Y-65501602D01*
X88905571Y-65501605D01*
X88663309Y-65601953D01*
X88663299Y-65601958D01*
X88436196Y-65733075D01*
X88228148Y-65892718D01*
X88042718Y-66078148D01*
X87883075Y-66286196D01*
X87751958Y-66513299D01*
X87751953Y-66513309D01*
X87651605Y-66755571D01*
X87651602Y-66755581D01*
X87583730Y-67008885D01*
X87549500Y-67268872D01*
X83507757Y-67268872D01*
X83545892Y-67202821D01*
X83587472Y-67130801D01*
X83587479Y-67130787D01*
X83692819Y-66876471D01*
X83764069Y-66610565D01*
X83800000Y-66337641D01*
X83800000Y-66062358D01*
X83764069Y-65789434D01*
X83692819Y-65523528D01*
X83587479Y-65269212D01*
X83587472Y-65269197D01*
X83449836Y-65030804D01*
X83351240Y-64902312D01*
X82636290Y-65617262D01*
X82539033Y-65483398D01*
X82416602Y-65360967D01*
X82282736Y-65263708D01*
X82997686Y-64548758D01*
X82869196Y-64450163D01*
X82630802Y-64312527D01*
X82630787Y-64312520D01*
X82376471Y-64207180D01*
X82110565Y-64135930D01*
X81837642Y-64100000D01*
X81562358Y-64100000D01*
X81289434Y-64135930D01*
X81023528Y-64207180D01*
X80769212Y-64312520D01*
X80769197Y-64312527D01*
X80530799Y-64450166D01*
X80402312Y-64548757D01*
X80402312Y-64548758D01*
X81117263Y-65263709D01*
X80983398Y-65360967D01*
X80860967Y-65483398D01*
X80763709Y-65617263D01*
X80048758Y-64902312D01*
X80048757Y-64902312D01*
X79950166Y-65030799D01*
X79812527Y-65269197D01*
X79812520Y-65269212D01*
X79707180Y-65523528D01*
X79635930Y-65789434D01*
X79600000Y-66062358D01*
X72738297Y-66062358D01*
X86440150Y-52360505D01*
X86501471Y-52327022D01*
X86547227Y-52325715D01*
X86615868Y-52336586D01*
X86703713Y-52350500D01*
X86703714Y-52350500D01*
X86916286Y-52350500D01*
X86916287Y-52350500D01*
X87126243Y-52317246D01*
X87328412Y-52251557D01*
X87517816Y-52155051D01*
X87539789Y-52139086D01*
X87689786Y-52030109D01*
X87689788Y-52030106D01*
X87689792Y-52030104D01*
X87840104Y-51879792D01*
X87840106Y-51879788D01*
X87840109Y-51879786D01*
X87965048Y-51707820D01*
X87965047Y-51707820D01*
X87965051Y-51707816D01*
X88061557Y-51518412D01*
X88127246Y-51316243D01*
X88160500Y-51106287D01*
X88160500Y-50893713D01*
X88127246Y-50683757D01*
X88061557Y-50481588D01*
X87965051Y-50292184D01*
X87965049Y-50292181D01*
X87965048Y-50292179D01*
X87840109Y-50120213D01*
X87689786Y-49969890D01*
X87517820Y-49844951D01*
X87328414Y-49748444D01*
X87328413Y-49748443D01*
X87328412Y-49748443D01*
X87126243Y-49682754D01*
X87126241Y-49682753D01*
X87126240Y-49682753D01*
X86964957Y-49657208D01*
X86916287Y-49649500D01*
X86703713Y-49649500D01*
X86655042Y-49657208D01*
X86493760Y-49682753D01*
X86291585Y-49748444D01*
X86102179Y-49844951D01*
X85930213Y-49969890D01*
X85779890Y-50120213D01*
X85654949Y-50292182D01*
X85650484Y-50300946D01*
X85602509Y-50351742D01*
X85534688Y-50368536D01*
X85468553Y-50345998D01*
X85429516Y-50300946D01*
X85425050Y-50292182D01*
X85300109Y-50120213D01*
X85149786Y-49969890D01*
X84977820Y-49844951D01*
X84788414Y-49748444D01*
X84788413Y-49748443D01*
X84788412Y-49748443D01*
X84586243Y-49682754D01*
X84586241Y-49682753D01*
X84586240Y-49682753D01*
X84424957Y-49657208D01*
X84376287Y-49649500D01*
X84163713Y-49649500D01*
X84115042Y-49657208D01*
X83953760Y-49682753D01*
X83751585Y-49748444D01*
X83562179Y-49844951D01*
X83390213Y-49969890D01*
X83239890Y-50120213D01*
X83114949Y-50292182D01*
X83110484Y-50300946D01*
X83062509Y-50351742D01*
X82994688Y-50368536D01*
X82928553Y-50345998D01*
X82889516Y-50300946D01*
X82885050Y-50292182D01*
X82760109Y-50120213D01*
X82609786Y-49969890D01*
X82437820Y-49844951D01*
X82248414Y-49748444D01*
X82248413Y-49748443D01*
X82248412Y-49748443D01*
X82046243Y-49682754D01*
X82046241Y-49682753D01*
X82046240Y-49682753D01*
X81884957Y-49657208D01*
X81836287Y-49649500D01*
X81623713Y-49649500D01*
X81575042Y-49657208D01*
X81413760Y-49682753D01*
X81211585Y-49748444D01*
X81022179Y-49844951D01*
X80850213Y-49969890D01*
X80699890Y-50120213D01*
X80574949Y-50292182D01*
X80570484Y-50300946D01*
X80522509Y-50351742D01*
X80454688Y-50368536D01*
X80388553Y-50345998D01*
X80349516Y-50300946D01*
X80345050Y-50292182D01*
X80220109Y-50120213D01*
X80069786Y-49969890D01*
X79897820Y-49844951D01*
X79708414Y-49748444D01*
X79708413Y-49748443D01*
X79708412Y-49748443D01*
X79506243Y-49682754D01*
X79506241Y-49682753D01*
X79506240Y-49682753D01*
X79344957Y-49657208D01*
X79296287Y-49649500D01*
X79083713Y-49649500D01*
X79035042Y-49657208D01*
X78873760Y-49682753D01*
X78671585Y-49748444D01*
X78482179Y-49844951D01*
X78310213Y-49969890D01*
X78159890Y-50120213D01*
X78034949Y-50292182D01*
X78030484Y-50300946D01*
X77982509Y-50351742D01*
X77914688Y-50368536D01*
X77848553Y-50345998D01*
X77809516Y-50300946D01*
X77805050Y-50292182D01*
X77680109Y-50120213D01*
X77529786Y-49969890D01*
X77357820Y-49844951D01*
X77168414Y-49748444D01*
X77168413Y-49748443D01*
X77168412Y-49748443D01*
X76966243Y-49682754D01*
X76966241Y-49682753D01*
X76966240Y-49682753D01*
X76804957Y-49657208D01*
X76756287Y-49649500D01*
X76543713Y-49649500D01*
X76495042Y-49657208D01*
X76333760Y-49682753D01*
X76131585Y-49748444D01*
X75942179Y-49844951D01*
X75770213Y-49969890D01*
X75619890Y-50120213D01*
X75494949Y-50292182D01*
X75490484Y-50300946D01*
X75442509Y-50351742D01*
X75374688Y-50368536D01*
X75308553Y-50345998D01*
X75269516Y-50300946D01*
X75265050Y-50292182D01*
X75140109Y-50120213D01*
X74989786Y-49969890D01*
X74817820Y-49844951D01*
X74628414Y-49748444D01*
X74628413Y-49748443D01*
X74628412Y-49748443D01*
X74426243Y-49682754D01*
X74426241Y-49682753D01*
X74426240Y-49682753D01*
X74264957Y-49657208D01*
X74216287Y-49649500D01*
X74003713Y-49649500D01*
X73955042Y-49657208D01*
X73793760Y-49682753D01*
X73591585Y-49748444D01*
X73402179Y-49844951D01*
X73230213Y-49969890D01*
X73079890Y-50120213D01*
X72954949Y-50292182D01*
X72950484Y-50300946D01*
X72902509Y-50351742D01*
X72834688Y-50368536D01*
X72768553Y-50345998D01*
X72729516Y-50300946D01*
X72725050Y-50292182D01*
X72600109Y-50120213D01*
X72449786Y-49969890D01*
X72277820Y-49844951D01*
X72088414Y-49748444D01*
X72088413Y-49748443D01*
X72088412Y-49748443D01*
X71886243Y-49682754D01*
X71886241Y-49682753D01*
X71886240Y-49682753D01*
X71724957Y-49657208D01*
X71676287Y-49649500D01*
X71463713Y-49649500D01*
X71415042Y-49657208D01*
X71253760Y-49682753D01*
X71051585Y-49748444D01*
X70862179Y-49844951D01*
X70690213Y-49969890D01*
X70539890Y-50120213D01*
X70414949Y-50292182D01*
X70410484Y-50300946D01*
X70362509Y-50351742D01*
X70294688Y-50368536D01*
X70228553Y-50345998D01*
X70189516Y-50300946D01*
X70185050Y-50292182D01*
X70060109Y-50120213D01*
X69909786Y-49969890D01*
X69737820Y-49844951D01*
X69548414Y-49748444D01*
X69548413Y-49748443D01*
X69548412Y-49748443D01*
X69346243Y-49682754D01*
X69346241Y-49682753D01*
X69346240Y-49682753D01*
X69184957Y-49657208D01*
X69136287Y-49649500D01*
X68923713Y-49649500D01*
X68875042Y-49657208D01*
X68713760Y-49682753D01*
X68511585Y-49748444D01*
X68322179Y-49844951D01*
X68150213Y-49969890D01*
X67999890Y-50120213D01*
X67874949Y-50292182D01*
X67870484Y-50300946D01*
X67822509Y-50351742D01*
X67754688Y-50368536D01*
X67688553Y-50345998D01*
X67649516Y-50300946D01*
X67645050Y-50292182D01*
X67520109Y-50120213D01*
X67369786Y-49969890D01*
X67197820Y-49844951D01*
X67008414Y-49748444D01*
X67008413Y-49748443D01*
X67008412Y-49748443D01*
X66806243Y-49682754D01*
X66806241Y-49682753D01*
X66806240Y-49682753D01*
X66644957Y-49657208D01*
X66596287Y-49649500D01*
X66383713Y-49649500D01*
X66335042Y-49657208D01*
X66173760Y-49682753D01*
X65971585Y-49748444D01*
X65782179Y-49844951D01*
X65610213Y-49969890D01*
X65459890Y-50120213D01*
X65334949Y-50292182D01*
X65330484Y-50300946D01*
X65282509Y-50351742D01*
X65214688Y-50368536D01*
X65148553Y-50345998D01*
X65109516Y-50300946D01*
X65105050Y-50292182D01*
X64980109Y-50120213D01*
X64829786Y-49969890D01*
X64657820Y-49844951D01*
X64468414Y-49748444D01*
X64468413Y-49748443D01*
X64468412Y-49748443D01*
X64266243Y-49682754D01*
X64266241Y-49682753D01*
X64266240Y-49682753D01*
X64104957Y-49657208D01*
X64056287Y-49649500D01*
X63843713Y-49649500D01*
X63795042Y-49657208D01*
X63633760Y-49682753D01*
X63431585Y-49748444D01*
X63242179Y-49844951D01*
X63070213Y-49969890D01*
X62919890Y-50120213D01*
X62794949Y-50292182D01*
X62790484Y-50300946D01*
X62742509Y-50351742D01*
X62674688Y-50368536D01*
X62608553Y-50345998D01*
X62569516Y-50300946D01*
X62565050Y-50292182D01*
X62440109Y-50120213D01*
X62289786Y-49969890D01*
X62117820Y-49844951D01*
X61928414Y-49748444D01*
X61928413Y-49748443D01*
X61928412Y-49748443D01*
X61726243Y-49682754D01*
X61726241Y-49682753D01*
X61726240Y-49682753D01*
X61564957Y-49657208D01*
X61516287Y-49649500D01*
X61303713Y-49649500D01*
X61255042Y-49657208D01*
X61093760Y-49682753D01*
X60891585Y-49748444D01*
X60702179Y-49844951D01*
X60530213Y-49969890D01*
X60379890Y-50120213D01*
X60254949Y-50292182D01*
X60250484Y-50300946D01*
X60202509Y-50351742D01*
X60134688Y-50368536D01*
X60068553Y-50345998D01*
X60029516Y-50300946D01*
X60025050Y-50292182D01*
X59900109Y-50120213D01*
X59749786Y-49969890D01*
X59577820Y-49844951D01*
X59388414Y-49748444D01*
X59388413Y-49748443D01*
X59388412Y-49748443D01*
X59186243Y-49682754D01*
X59186241Y-49682753D01*
X59186240Y-49682753D01*
X59024957Y-49657208D01*
X58976287Y-49649500D01*
X58763713Y-49649500D01*
X58715042Y-49657208D01*
X58553760Y-49682753D01*
X58351585Y-49748444D01*
X58162179Y-49844951D01*
X57990213Y-49969890D01*
X57839890Y-50120213D01*
X57714949Y-50292182D01*
X57710484Y-50300946D01*
X57662509Y-50351742D01*
X57594688Y-50368536D01*
X57528553Y-50345998D01*
X57489516Y-50300946D01*
X57485050Y-50292182D01*
X57360109Y-50120213D01*
X57209786Y-49969890D01*
X57037820Y-49844951D01*
X56848414Y-49748444D01*
X56848413Y-49748443D01*
X56848412Y-49748443D01*
X56646243Y-49682754D01*
X56646241Y-49682753D01*
X56646240Y-49682753D01*
X56484957Y-49657208D01*
X56436287Y-49649500D01*
X56223713Y-49649500D01*
X56175042Y-49657208D01*
X56013760Y-49682753D01*
X55811585Y-49748444D01*
X55622179Y-49844951D01*
X55450213Y-49969890D01*
X55299890Y-50120213D01*
X55174949Y-50292182D01*
X55170484Y-50300946D01*
X55122509Y-50351742D01*
X55054688Y-50368536D01*
X54988553Y-50345998D01*
X54949516Y-50300946D01*
X54945050Y-50292182D01*
X54820109Y-50120213D01*
X54669786Y-49969890D01*
X54497820Y-49844951D01*
X54308414Y-49748444D01*
X54308413Y-49748443D01*
X54308412Y-49748443D01*
X54106243Y-49682754D01*
X54106241Y-49682753D01*
X54106240Y-49682753D01*
X53944957Y-49657208D01*
X53896287Y-49649500D01*
X53683713Y-49649500D01*
X53635042Y-49657208D01*
X53473760Y-49682753D01*
X53271585Y-49748444D01*
X53082179Y-49844951D01*
X52910213Y-49969890D01*
X52759890Y-50120213D01*
X52634949Y-50292182D01*
X52630484Y-50300946D01*
X52582509Y-50351742D01*
X52514688Y-50368536D01*
X52448553Y-50345998D01*
X52409516Y-50300946D01*
X52405050Y-50292182D01*
X52280109Y-50120213D01*
X52129786Y-49969890D01*
X51957820Y-49844951D01*
X51768414Y-49748444D01*
X51768413Y-49748443D01*
X51768412Y-49748443D01*
X51566243Y-49682754D01*
X51566241Y-49682753D01*
X51566240Y-49682753D01*
X51404957Y-49657208D01*
X51356287Y-49649500D01*
X51143713Y-49649500D01*
X51095042Y-49657208D01*
X50933760Y-49682753D01*
X50731585Y-49748444D01*
X50542179Y-49844951D01*
X50370213Y-49969890D01*
X50219890Y-50120213D01*
X50094951Y-50292179D01*
X49998444Y-50481585D01*
X49932753Y-50683760D01*
X49899500Y-50893713D01*
X49899500Y-51106286D01*
X49932753Y-51316239D01*
X49998444Y-51518414D01*
X50094951Y-51707820D01*
X50219890Y-51879786D01*
X50370213Y-52030109D01*
X50542179Y-52155048D01*
X50542181Y-52155049D01*
X50542184Y-52155051D01*
X50731588Y-52251557D01*
X50933757Y-52317246D01*
X51143713Y-52350500D01*
X51143714Y-52350500D01*
X51356286Y-52350500D01*
X51356287Y-52350500D01*
X51566243Y-52317246D01*
X51768412Y-52251557D01*
X51957816Y-52155051D01*
X51979789Y-52139086D01*
X52129786Y-52030109D01*
X52129788Y-52030106D01*
X52129792Y-52030104D01*
X52280104Y-51879792D01*
X52280106Y-51879788D01*
X52280109Y-51879786D01*
X52405048Y-51707820D01*
X52405047Y-51707820D01*
X52405051Y-51707816D01*
X52409514Y-51699054D01*
X52457488Y-51648259D01*
X52525308Y-51631463D01*
X52591444Y-51653999D01*
X52630486Y-51699056D01*
X52634951Y-51707820D01*
X52759890Y-51879786D01*
X52910213Y-52030109D01*
X53082179Y-52155048D01*
X53082181Y-52155049D01*
X53082184Y-52155051D01*
X53271588Y-52251557D01*
X53473757Y-52317246D01*
X53683713Y-52350500D01*
X53683714Y-52350500D01*
X53896286Y-52350500D01*
X53896287Y-52350500D01*
X54106243Y-52317246D01*
X54308412Y-52251557D01*
X54497816Y-52155051D01*
X54519789Y-52139086D01*
X54669786Y-52030109D01*
X54669788Y-52030106D01*
X54669792Y-52030104D01*
X54820104Y-51879792D01*
X54820106Y-51879788D01*
X54820109Y-51879786D01*
X54945048Y-51707820D01*
X54945047Y-51707820D01*
X54945051Y-51707816D01*
X54949514Y-51699054D01*
X54997488Y-51648259D01*
X55065308Y-51631463D01*
X55131444Y-51653999D01*
X55170486Y-51699056D01*
X55174951Y-51707820D01*
X55299890Y-51879786D01*
X55450213Y-52030109D01*
X55622179Y-52155048D01*
X55622181Y-52155049D01*
X55622184Y-52155051D01*
X55811588Y-52251557D01*
X56013757Y-52317246D01*
X56223713Y-52350500D01*
X56223714Y-52350500D01*
X56436286Y-52350500D01*
X56436287Y-52350500D01*
X56646243Y-52317246D01*
X56848412Y-52251557D01*
X57037816Y-52155051D01*
X57059789Y-52139086D01*
X57209786Y-52030109D01*
X57209788Y-52030106D01*
X57209792Y-52030104D01*
X57360104Y-51879792D01*
X57360106Y-51879788D01*
X57360109Y-51879786D01*
X57485048Y-51707820D01*
X57485047Y-51707820D01*
X57485051Y-51707816D01*
X57489514Y-51699054D01*
X57537488Y-51648259D01*
X57605308Y-51631463D01*
X57671444Y-51653999D01*
X57710486Y-51699056D01*
X57714951Y-51707820D01*
X57839890Y-51879786D01*
X57990213Y-52030109D01*
X58162179Y-52155048D01*
X58162181Y-52155049D01*
X58162184Y-52155051D01*
X58351588Y-52251557D01*
X58553757Y-52317246D01*
X58763713Y-52350500D01*
X58763714Y-52350500D01*
X58976286Y-52350500D01*
X58976287Y-52350500D01*
X59186243Y-52317246D01*
X59388412Y-52251557D01*
X59577816Y-52155051D01*
X59599789Y-52139086D01*
X59749786Y-52030109D01*
X59749788Y-52030106D01*
X59749792Y-52030104D01*
X59900104Y-51879792D01*
X59900106Y-51879788D01*
X59900109Y-51879786D01*
X60025048Y-51707820D01*
X60025047Y-51707820D01*
X60025051Y-51707816D01*
X60029514Y-51699054D01*
X60077488Y-51648259D01*
X60145308Y-51631463D01*
X60211444Y-51653999D01*
X60250486Y-51699056D01*
X60254951Y-51707820D01*
X60379890Y-51879786D01*
X60530213Y-52030109D01*
X60702179Y-52155048D01*
X60702181Y-52155049D01*
X60702184Y-52155051D01*
X60891588Y-52251557D01*
X61093757Y-52317246D01*
X61303713Y-52350500D01*
X61303714Y-52350500D01*
X61516286Y-52350500D01*
X61516287Y-52350500D01*
X61726243Y-52317246D01*
X61928412Y-52251557D01*
X62117816Y-52155051D01*
X62139789Y-52139086D01*
X62289786Y-52030109D01*
X62289788Y-52030106D01*
X62289792Y-52030104D01*
X62440104Y-51879792D01*
X62440106Y-51879788D01*
X62440109Y-51879786D01*
X62565048Y-51707820D01*
X62565047Y-51707820D01*
X62565051Y-51707816D01*
X62569514Y-51699054D01*
X62617488Y-51648259D01*
X62685308Y-51631463D01*
X62751444Y-51653999D01*
X62790486Y-51699056D01*
X62794951Y-51707820D01*
X62919890Y-51879786D01*
X63070213Y-52030109D01*
X63242179Y-52155048D01*
X63242181Y-52155049D01*
X63242184Y-52155051D01*
X63431588Y-52251557D01*
X63633757Y-52317246D01*
X63843713Y-52350500D01*
X63843714Y-52350500D01*
X64056286Y-52350500D01*
X64056287Y-52350500D01*
X64266243Y-52317246D01*
X64468412Y-52251557D01*
X64657816Y-52155051D01*
X64679789Y-52139086D01*
X64829786Y-52030109D01*
X64829788Y-52030106D01*
X64829792Y-52030104D01*
X64980104Y-51879792D01*
X64980106Y-51879788D01*
X64980109Y-51879786D01*
X65105048Y-51707820D01*
X65105047Y-51707820D01*
X65105051Y-51707816D01*
X65109514Y-51699054D01*
X65157488Y-51648259D01*
X65225308Y-51631463D01*
X65291444Y-51653999D01*
X65330486Y-51699056D01*
X65334951Y-51707820D01*
X65459890Y-51879786D01*
X65610213Y-52030109D01*
X65782179Y-52155048D01*
X65782181Y-52155049D01*
X65782184Y-52155051D01*
X65971588Y-52251557D01*
X66173757Y-52317246D01*
X66383713Y-52350500D01*
X66383714Y-52350500D01*
X66596286Y-52350500D01*
X66596287Y-52350500D01*
X66806243Y-52317246D01*
X67008412Y-52251557D01*
X67197816Y-52155051D01*
X67219789Y-52139086D01*
X67369786Y-52030109D01*
X67369788Y-52030106D01*
X67369792Y-52030104D01*
X67520104Y-51879792D01*
X67520106Y-51879788D01*
X67520109Y-51879786D01*
X67645048Y-51707820D01*
X67645047Y-51707820D01*
X67645051Y-51707816D01*
X67649514Y-51699054D01*
X67697488Y-51648259D01*
X67765308Y-51631463D01*
X67831444Y-51653999D01*
X67870486Y-51699056D01*
X67874951Y-51707820D01*
X67999890Y-51879786D01*
X68150213Y-52030109D01*
X68322179Y-52155048D01*
X68322181Y-52155049D01*
X68322184Y-52155051D01*
X68511588Y-52251557D01*
X68713757Y-52317246D01*
X68923713Y-52350500D01*
X68923714Y-52350500D01*
X69136286Y-52350500D01*
X69136287Y-52350500D01*
X69346243Y-52317246D01*
X69548412Y-52251557D01*
X69737816Y-52155051D01*
X69759789Y-52139086D01*
X69909786Y-52030109D01*
X69909788Y-52030106D01*
X69909792Y-52030104D01*
X70060104Y-51879792D01*
X70060106Y-51879788D01*
X70060109Y-51879786D01*
X70185048Y-51707820D01*
X70185047Y-51707820D01*
X70185051Y-51707816D01*
X70189514Y-51699054D01*
X70237488Y-51648259D01*
X70305308Y-51631463D01*
X70371444Y-51653999D01*
X70410486Y-51699056D01*
X70414951Y-51707820D01*
X70539890Y-51879786D01*
X70690213Y-52030109D01*
X70862179Y-52155048D01*
X70862181Y-52155049D01*
X70862184Y-52155051D01*
X71051588Y-52251557D01*
X71253757Y-52317246D01*
X71463713Y-52350500D01*
X71463714Y-52350500D01*
X71676286Y-52350500D01*
X71676287Y-52350500D01*
X71886243Y-52317246D01*
X72088412Y-52251557D01*
X72277816Y-52155051D01*
X72299789Y-52139086D01*
X72449786Y-52030109D01*
X72449788Y-52030106D01*
X72449792Y-52030104D01*
X72600104Y-51879792D01*
X72600106Y-51879788D01*
X72600109Y-51879786D01*
X72725048Y-51707820D01*
X72725047Y-51707820D01*
X72725051Y-51707816D01*
X72729514Y-51699054D01*
X72777488Y-51648259D01*
X72845308Y-51631463D01*
X72911444Y-51653999D01*
X72950486Y-51699056D01*
X72954951Y-51707820D01*
X73079890Y-51879786D01*
X73230213Y-52030109D01*
X73402179Y-52155048D01*
X73402181Y-52155049D01*
X73402184Y-52155051D01*
X73591588Y-52251557D01*
X73793757Y-52317246D01*
X74003713Y-52350500D01*
X74003714Y-52350500D01*
X74216286Y-52350500D01*
X74216287Y-52350500D01*
X74426243Y-52317246D01*
X74628412Y-52251557D01*
X74817816Y-52155051D01*
X74839789Y-52139086D01*
X74989786Y-52030109D01*
X74989788Y-52030106D01*
X74989792Y-52030104D01*
X75140104Y-51879792D01*
X75140106Y-51879788D01*
X75140109Y-51879786D01*
X75265048Y-51707820D01*
X75265047Y-51707820D01*
X75265051Y-51707816D01*
X75269514Y-51699054D01*
X75317488Y-51648259D01*
X75385308Y-51631463D01*
X75451444Y-51653999D01*
X75490486Y-51699056D01*
X75494951Y-51707820D01*
X75619890Y-51879786D01*
X75770213Y-52030109D01*
X75942179Y-52155048D01*
X75942181Y-52155049D01*
X75942184Y-52155051D01*
X76131588Y-52251557D01*
X76333757Y-52317246D01*
X76543713Y-52350500D01*
X76543714Y-52350500D01*
X76690902Y-52350500D01*
X76757941Y-52370185D01*
X76803696Y-52422989D01*
X76813640Y-52492147D01*
X76784615Y-52555703D01*
X76778583Y-52562181D01*
X59527584Y-69813181D01*
X59466261Y-69846666D01*
X59439903Y-69849500D01*
X46124000Y-69849500D01*
X46056961Y-69829815D01*
X46011206Y-69777011D01*
X46000000Y-69725500D01*
X46000000Y-27301362D01*
X46019685Y-27234323D01*
X46036319Y-27213681D01*
X50268053Y-22981947D01*
X53200000Y-22981947D01*
X53200000Y-23218052D01*
X53236934Y-23451247D01*
X53309897Y-23675802D01*
X53417087Y-23886174D01*
X53477338Y-23969104D01*
X53477340Y-23969105D01*
X54217037Y-23229408D01*
X54234075Y-23292993D01*
X54299901Y-23407007D01*
X54392993Y-23500099D01*
X54507007Y-23565925D01*
X54570590Y-23582962D01*
X53830893Y-24322658D01*
X53913828Y-24382914D01*
X54124197Y-24490102D01*
X54348752Y-24563065D01*
X54348751Y-24563065D01*
X54581948Y-24600000D01*
X54818052Y-24600000D01*
X55051247Y-24563065D01*
X55275802Y-24490102D01*
X55486163Y-24382918D01*
X55486169Y-24382914D01*
X55569104Y-24322658D01*
X55569105Y-24322658D01*
X54829408Y-23582962D01*
X54892993Y-23565925D01*
X55007007Y-23500099D01*
X55100099Y-23407007D01*
X55165925Y-23292993D01*
X55182962Y-23229408D01*
X55922658Y-23969105D01*
X55922658Y-23969104D01*
X55982914Y-23886169D01*
X55982918Y-23886163D01*
X56090102Y-23675802D01*
X56163065Y-23451247D01*
X56200000Y-23218052D01*
X56200000Y-22981947D01*
X56163065Y-22748752D01*
X56124284Y-22629395D01*
X56122289Y-22559554D01*
X56158369Y-22499721D01*
X56221070Y-22468893D01*
X56290484Y-22476858D01*
X56329896Y-22503396D01*
X60625966Y-26799466D01*
X60660326Y-26822423D01*
X60685040Y-26838936D01*
X60773453Y-26898013D01*
X60855393Y-26931953D01*
X60861480Y-26934474D01*
X60861485Y-26934477D01*
X60897940Y-26949577D01*
X60937334Y-26965895D01*
X61111303Y-27000499D01*
X61111307Y-27000500D01*
X61111308Y-27000500D01*
X61111309Y-27000500D01*
X69575638Y-27000500D01*
X69642677Y-27020185D01*
X69663319Y-27036819D01*
X86985958Y-44359459D01*
X86985961Y-44359462D01*
X86985964Y-44359464D01*
X87036475Y-44393214D01*
X87133453Y-44458013D01*
X87215393Y-44491953D01*
X87297334Y-44525895D01*
X87471303Y-44560499D01*
X87471307Y-44560500D01*
X87471308Y-44560500D01*
X87471309Y-44560500D01*
X96908176Y-44560500D01*
X96975215Y-44580185D01*
X96995857Y-44596819D01*
X97146350Y-44747312D01*
X97146355Y-44747316D01*
X97260147Y-44829991D01*
X97302813Y-44885321D01*
X97308792Y-44954934D01*
X97276186Y-45016729D01*
X97260148Y-45030627D01*
X97259588Y-45031033D01*
X97259588Y-45031034D01*
X97846646Y-45618092D01*
X97778952Y-45646132D01*
X97676586Y-45714531D01*
X97589531Y-45801586D01*
X97521132Y-45903952D01*
X97493092Y-45971646D01*
X96906034Y-45384588D01*
X96856229Y-45453140D01*
X96754400Y-45652989D01*
X96754399Y-45652992D01*
X96685089Y-45866310D01*
X96650000Y-46087850D01*
X96650000Y-46312149D01*
X96685089Y-46533689D01*
X96754399Y-46747007D01*
X96754400Y-46747010D01*
X96856233Y-46946866D01*
X96906032Y-47015410D01*
X96906034Y-47015411D01*
X97493092Y-46428353D01*
X97521132Y-46496048D01*
X97589531Y-46598414D01*
X97676586Y-46685469D01*
X97778952Y-46753868D01*
X97846645Y-46781907D01*
X97259587Y-47368964D01*
X97259588Y-47368965D01*
X97260148Y-47369372D01*
X97302814Y-47424702D01*
X97308793Y-47494315D01*
X97276187Y-47556110D01*
X97260148Y-47570008D01*
X97146355Y-47652683D01*
X97146350Y-47652687D01*
X96987687Y-47811350D01*
X96987683Y-47811355D01*
X96855805Y-47992871D01*
X96753938Y-48192793D01*
X96684599Y-48406194D01*
X96649500Y-48627805D01*
X96649500Y-48852194D01*
X96684599Y-49073805D01*
X96753938Y-49287206D01*
X96855805Y-49487128D01*
X96987683Y-49668644D01*
X96987687Y-49668649D01*
X97146350Y-49827312D01*
X97146355Y-49827316D01*
X97170628Y-49844951D01*
X97327875Y-49959197D01*
X97455264Y-50024105D01*
X97527793Y-50061061D01*
X97527795Y-50061061D01*
X97527798Y-50061063D01*
X97642184Y-50098229D01*
X97741194Y-50130400D01*
X97962806Y-50165500D01*
X97962811Y-50165500D01*
X98187194Y-50165500D01*
X98408805Y-50130400D01*
X98440157Y-50120213D01*
X98622202Y-50061063D01*
X98822125Y-49959197D01*
X99003651Y-49827311D01*
X99162311Y-49668651D01*
X99294197Y-49487125D01*
X99396063Y-49287202D01*
X99465400Y-49073805D01*
X99500500Y-48852194D01*
X99500500Y-48627805D01*
X99465400Y-48406194D01*
X99396061Y-48192793D01*
X99359105Y-48120264D01*
X99294197Y-47992875D01*
X99277347Y-47969683D01*
X99162316Y-47811355D01*
X99162312Y-47811350D01*
X99003649Y-47652687D01*
X99003644Y-47652683D01*
X98889851Y-47570008D01*
X98847185Y-47514679D01*
X98841206Y-47445065D01*
X98873811Y-47383270D01*
X98889851Y-47369372D01*
X98890410Y-47368965D01*
X98890411Y-47368964D01*
X98303353Y-46781907D01*
X98371048Y-46753868D01*
X98473414Y-46685469D01*
X98560469Y-46598414D01*
X98628868Y-46496048D01*
X98656907Y-46428354D01*
X99243964Y-47015411D01*
X99243964Y-47015410D01*
X99293769Y-46946862D01*
X99395599Y-46747010D01*
X99395600Y-46747007D01*
X99464910Y-46533689D01*
X99500000Y-46312149D01*
X99500000Y-46087850D01*
X99464910Y-45866310D01*
X99395600Y-45652992D01*
X99395599Y-45652989D01*
X99293768Y-45453136D01*
X99243964Y-45384588D01*
X99243964Y-45384587D01*
X98656907Y-45971645D01*
X98628868Y-45903952D01*
X98560469Y-45801586D01*
X98473414Y-45714531D01*
X98371048Y-45646132D01*
X98303353Y-45618092D01*
X98890411Y-45031034D01*
X98890410Y-45031033D01*
X98889852Y-45030627D01*
X98847186Y-44975298D01*
X98841207Y-44905684D01*
X98873812Y-44843889D01*
X98889852Y-44829991D01*
X99003645Y-44747316D01*
X99003647Y-44747313D01*
X99003651Y-44747311D01*
X99162311Y-44588651D01*
X99294197Y-44407125D01*
X99396063Y-44207202D01*
X99465400Y-43993805D01*
X99500500Y-43772194D01*
X99500500Y-43547805D01*
X99465400Y-43326194D01*
X99396061Y-43112793D01*
X99359105Y-43040264D01*
X99294197Y-42912875D01*
X99168462Y-42739815D01*
X99162316Y-42731355D01*
X99162312Y-42731350D01*
X99003649Y-42572687D01*
X99003644Y-42572683D01*
X98822128Y-42440805D01*
X98822127Y-42440804D01*
X98822125Y-42440803D01*
X98759692Y-42408992D01*
X98622206Y-42338938D01*
X98408805Y-42269599D01*
X98187194Y-42234500D01*
X98187189Y-42234500D01*
X97962811Y-42234500D01*
X97962806Y-42234500D01*
X97741194Y-42269599D01*
X97527793Y-42338938D01*
X97327871Y-42440805D01*
X97146355Y-42572683D01*
X97146350Y-42572687D01*
X96995857Y-42723181D01*
X96934534Y-42756666D01*
X96908176Y-42759500D01*
X87984362Y-42759500D01*
X87917323Y-42739815D01*
X87896681Y-42723181D01*
X79042372Y-33868872D01*
X91999500Y-33868872D01*
X91999500Y-34131127D01*
X92026123Y-34333339D01*
X92033730Y-34391116D01*
X92101602Y-34644418D01*
X92101605Y-34644428D01*
X92201953Y-34886690D01*
X92201958Y-34886700D01*
X92333075Y-35113803D01*
X92492718Y-35321851D01*
X92492726Y-35321860D01*
X92678140Y-35507274D01*
X92678148Y-35507281D01*
X92886196Y-35666924D01*
X93113299Y-35798041D01*
X93113309Y-35798046D01*
X93355571Y-35898394D01*
X93355581Y-35898398D01*
X93608884Y-35966270D01*
X93868880Y-36000500D01*
X93868887Y-36000500D01*
X94131113Y-36000500D01*
X94131120Y-36000500D01*
X94391116Y-35966270D01*
X94644419Y-35898398D01*
X94886697Y-35798043D01*
X95113803Y-35666924D01*
X95321851Y-35507282D01*
X95321855Y-35507277D01*
X95321860Y-35507274D01*
X95507274Y-35321860D01*
X95507277Y-35321855D01*
X95507282Y-35321851D01*
X95666924Y-35113803D01*
X95798043Y-34886697D01*
X95898398Y-34644419D01*
X95966270Y-34391116D01*
X96000500Y-34131120D01*
X96000500Y-33868880D01*
X95966270Y-33608884D01*
X95898398Y-33355581D01*
X95898394Y-33355571D01*
X95798046Y-33113309D01*
X95798041Y-33113299D01*
X95666924Y-32886196D01*
X95507281Y-32678148D01*
X95507274Y-32678140D01*
X95321860Y-32492726D01*
X95321851Y-32492718D01*
X95113803Y-32333075D01*
X94886700Y-32201958D01*
X94886690Y-32201953D01*
X94644428Y-32101605D01*
X94644421Y-32101603D01*
X94644419Y-32101602D01*
X94391116Y-32033730D01*
X94333339Y-32026123D01*
X94131127Y-31999500D01*
X94131120Y-31999500D01*
X93868880Y-31999500D01*
X93868872Y-31999500D01*
X93637772Y-32029926D01*
X93608884Y-32033730D01*
X93355581Y-32101602D01*
X93355571Y-32101605D01*
X93113309Y-32201953D01*
X93113299Y-32201958D01*
X92886196Y-32333075D01*
X92678148Y-32492718D01*
X92492718Y-32678148D01*
X92333075Y-32886196D01*
X92201958Y-33113299D01*
X92201953Y-33113309D01*
X92101605Y-33355571D01*
X92101602Y-33355581D01*
X92033730Y-33608885D01*
X91999500Y-33868872D01*
X79042372Y-33868872D01*
X70936819Y-25763319D01*
X70903334Y-25701996D01*
X70900500Y-25675638D01*
X70900500Y-22892264D01*
X70920185Y-22825225D01*
X70972989Y-22779470D01*
X71042147Y-22769526D01*
X71105703Y-22798551D01*
X71142431Y-22853947D01*
X71202102Y-23037600D01*
X71202104Y-23037606D01*
X71267437Y-23165826D01*
X71302049Y-23233756D01*
X71302187Y-23234025D01*
X71431752Y-23412358D01*
X71431756Y-23412363D01*
X71587636Y-23568243D01*
X71587641Y-23568247D01*
X71735941Y-23675992D01*
X71765978Y-23697815D01*
X71894375Y-23763237D01*
X71962393Y-23797895D01*
X71962396Y-23797896D01*
X72067221Y-23831955D01*
X72172049Y-23866015D01*
X72389778Y-23900500D01*
X72389779Y-23900500D01*
X72610221Y-23900500D01*
X72610222Y-23900500D01*
X72827951Y-23866015D01*
X73037606Y-23797895D01*
X73234022Y-23697815D01*
X73412365Y-23568242D01*
X73568242Y-23412365D01*
X73697815Y-23234022D01*
X73797895Y-23037606D01*
X73866015Y-22827951D01*
X73900500Y-22610222D01*
X73900500Y-22389778D01*
X76099500Y-22389778D01*
X76099500Y-22610221D01*
X76133985Y-22827952D01*
X76202103Y-23037603D01*
X76202104Y-23037606D01*
X76267437Y-23165826D01*
X76302049Y-23233756D01*
X76302187Y-23234025D01*
X76431752Y-23412358D01*
X76431756Y-23412363D01*
X76587636Y-23568243D01*
X76587641Y-23568247D01*
X76735941Y-23675992D01*
X76765978Y-23697815D01*
X76894375Y-23763237D01*
X76962393Y-23797895D01*
X76962396Y-23797896D01*
X77067221Y-23831955D01*
X77172049Y-23866015D01*
X77389778Y-23900500D01*
X77389779Y-23900500D01*
X77610221Y-23900500D01*
X77610222Y-23900500D01*
X77827951Y-23866015D01*
X78037606Y-23797895D01*
X78234022Y-23697815D01*
X78412365Y-23568242D01*
X78568242Y-23412365D01*
X78697815Y-23234022D01*
X78797895Y-23037606D01*
X78866015Y-22827951D01*
X78900500Y-22610222D01*
X78900500Y-22389818D01*
X81100000Y-22389818D01*
X81100000Y-22610181D01*
X81134473Y-22827835D01*
X81202567Y-23037410D01*
X81302611Y-23233756D01*
X81348932Y-23297513D01*
X82017037Y-22629408D01*
X82034075Y-22692993D01*
X82099901Y-22807007D01*
X82192993Y-22900099D01*
X82307007Y-22965925D01*
X82370590Y-22982962D01*
X81702485Y-23651065D01*
X81702485Y-23651066D01*
X81766243Y-23697388D01*
X81962589Y-23797432D01*
X82172164Y-23865526D01*
X82389819Y-23900000D01*
X82610181Y-23900000D01*
X82827835Y-23865526D01*
X83037410Y-23797432D01*
X83233760Y-23697386D01*
X83297513Y-23651066D01*
X83297514Y-23651066D01*
X82629409Y-22982962D01*
X82692993Y-22965925D01*
X82807007Y-22900099D01*
X82900099Y-22807007D01*
X82965925Y-22692993D01*
X82982962Y-22629409D01*
X83651066Y-23297514D01*
X83651066Y-23297513D01*
X83697386Y-23233760D01*
X83797432Y-23037410D01*
X83865526Y-22827835D01*
X83900000Y-22610181D01*
X83900000Y-22389818D01*
X83865526Y-22172164D01*
X83797432Y-21962589D01*
X83697388Y-21766243D01*
X83651066Y-21702485D01*
X83651065Y-21702485D01*
X82982962Y-22370589D01*
X82965925Y-22307007D01*
X82900099Y-22192993D01*
X82807007Y-22099901D01*
X82692993Y-22034075D01*
X82629407Y-22017037D01*
X83297513Y-21348932D01*
X83233756Y-21302611D01*
X83037410Y-21202567D01*
X82827835Y-21134473D01*
X82610181Y-21100000D01*
X82389819Y-21100000D01*
X82172164Y-21134473D01*
X81962589Y-21202567D01*
X81766233Y-21302616D01*
X81702485Y-21348931D01*
X81702485Y-21348932D01*
X82370590Y-22017037D01*
X82307007Y-22034075D01*
X82192993Y-22099901D01*
X82099901Y-22192993D01*
X82034075Y-22307007D01*
X82017037Y-22370590D01*
X81348932Y-21702485D01*
X81348931Y-21702485D01*
X81302616Y-21766233D01*
X81202567Y-21962589D01*
X81134473Y-22172164D01*
X81100000Y-22389818D01*
X78900500Y-22389818D01*
X78900500Y-22389778D01*
X78866015Y-22172049D01*
X78810114Y-22000000D01*
X78797896Y-21962396D01*
X78797895Y-21962393D01*
X78723855Y-21817084D01*
X78697815Y-21765978D01*
X78651685Y-21702485D01*
X78568247Y-21587641D01*
X78568243Y-21587636D01*
X78412363Y-21431756D01*
X78412358Y-21431752D01*
X78234025Y-21302187D01*
X78234024Y-21302186D01*
X78234022Y-21302185D01*
X78171096Y-21270122D01*
X78037606Y-21202104D01*
X78037603Y-21202103D01*
X77827952Y-21133985D01*
X77719086Y-21116742D01*
X77610222Y-21099500D01*
X77389778Y-21099500D01*
X77317201Y-21110995D01*
X77172047Y-21133985D01*
X76962396Y-21202103D01*
X76962393Y-21202104D01*
X76765974Y-21302187D01*
X76587641Y-21431752D01*
X76587636Y-21431756D01*
X76431756Y-21587636D01*
X76431752Y-21587641D01*
X76302187Y-21765974D01*
X76202104Y-21962393D01*
X76202103Y-21962396D01*
X76133985Y-22172047D01*
X76099500Y-22389778D01*
X73900500Y-22389778D01*
X73866015Y-22172049D01*
X73810114Y-22000000D01*
X73797896Y-21962396D01*
X73797895Y-21962393D01*
X73723855Y-21817084D01*
X73697815Y-21765978D01*
X73651685Y-21702485D01*
X73568247Y-21587641D01*
X73568243Y-21587636D01*
X73412363Y-21431756D01*
X73412358Y-21431752D01*
X73234025Y-21302187D01*
X73234024Y-21302186D01*
X73234022Y-21302185D01*
X73171096Y-21270122D01*
X73037606Y-21202104D01*
X73037603Y-21202103D01*
X72827952Y-21133985D01*
X72719086Y-21116742D01*
X72610222Y-21099500D01*
X72389778Y-21099500D01*
X72317201Y-21110995D01*
X72172047Y-21133985D01*
X71962396Y-21202103D01*
X71962393Y-21202104D01*
X71765974Y-21302187D01*
X71587641Y-21431752D01*
X71587636Y-21431756D01*
X71431756Y-21587636D01*
X71431752Y-21587641D01*
X71302187Y-21765974D01*
X71202104Y-21962393D01*
X71202103Y-21962396D01*
X71142431Y-22146053D01*
X71102994Y-22203728D01*
X71038635Y-22230927D01*
X70969789Y-22219013D01*
X70918313Y-22171769D01*
X70900500Y-22107735D01*
X70900500Y-18631469D01*
X70920185Y-18564430D01*
X70936819Y-18543788D01*
X71068242Y-18412365D01*
X71197815Y-18234022D01*
X71297895Y-18037606D01*
X71366015Y-17827951D01*
X71400500Y-17610222D01*
X71400500Y-17389778D01*
X73599500Y-17389778D01*
X73599500Y-17610221D01*
X73633985Y-17827952D01*
X73702103Y-18037603D01*
X73702104Y-18037606D01*
X73802187Y-18234025D01*
X73931752Y-18412358D01*
X73931756Y-18412363D01*
X74087636Y-18568243D01*
X74087641Y-18568247D01*
X74099499Y-18576862D01*
X74265978Y-18697815D01*
X74394375Y-18763237D01*
X74462393Y-18797895D01*
X74462396Y-18797896D01*
X74567221Y-18831955D01*
X74672049Y-18866015D01*
X74889778Y-18900500D01*
X74889779Y-18900500D01*
X75110221Y-18900500D01*
X75110222Y-18900500D01*
X75327951Y-18866015D01*
X75537606Y-18797895D01*
X75734022Y-18697815D01*
X75912365Y-18568242D01*
X76068242Y-18412365D01*
X76197815Y-18234022D01*
X76297895Y-18037606D01*
X76366015Y-17827951D01*
X76400500Y-17610222D01*
X76400500Y-17389778D01*
X78599500Y-17389778D01*
X78599500Y-17610221D01*
X78633985Y-17827952D01*
X78702103Y-18037603D01*
X78702104Y-18037606D01*
X78802187Y-18234025D01*
X78931752Y-18412358D01*
X78931756Y-18412363D01*
X79087636Y-18568243D01*
X79087641Y-18568247D01*
X79099499Y-18576862D01*
X79265978Y-18697815D01*
X79394375Y-18763237D01*
X79462393Y-18797895D01*
X79462396Y-18797896D01*
X79567221Y-18831955D01*
X79672049Y-18866015D01*
X79889778Y-18900500D01*
X79889779Y-18900500D01*
X80110221Y-18900500D01*
X80110222Y-18900500D01*
X80327951Y-18866015D01*
X80537606Y-18797895D01*
X80734022Y-18697815D01*
X80912365Y-18568242D01*
X81068242Y-18412365D01*
X81197815Y-18234022D01*
X81297895Y-18037606D01*
X81366015Y-17827951D01*
X81400500Y-17610222D01*
X81400500Y-17389778D01*
X81366015Y-17172049D01*
X81297895Y-16962394D01*
X81297895Y-16962393D01*
X81263237Y-16894375D01*
X81197815Y-16765978D01*
X81181260Y-16743192D01*
X81068247Y-16587641D01*
X81068243Y-16587636D01*
X80912363Y-16431756D01*
X80912358Y-16431752D01*
X80734025Y-16302187D01*
X80734024Y-16302186D01*
X80734022Y-16302185D01*
X80671096Y-16270122D01*
X80537606Y-16202104D01*
X80537603Y-16202103D01*
X80327952Y-16133985D01*
X80219086Y-16116742D01*
X80110222Y-16099500D01*
X79889778Y-16099500D01*
X79817201Y-16110995D01*
X79672047Y-16133985D01*
X79462396Y-16202103D01*
X79462393Y-16202104D01*
X79265974Y-16302187D01*
X79087641Y-16431752D01*
X79087636Y-16431756D01*
X78931756Y-16587636D01*
X78931752Y-16587641D01*
X78802187Y-16765974D01*
X78702104Y-16962393D01*
X78702103Y-16962396D01*
X78633985Y-17172047D01*
X78599500Y-17389778D01*
X76400500Y-17389778D01*
X76366015Y-17172049D01*
X76297895Y-16962394D01*
X76297895Y-16962393D01*
X76263237Y-16894375D01*
X76197815Y-16765978D01*
X76181260Y-16743192D01*
X76068247Y-16587641D01*
X76068243Y-16587636D01*
X75912363Y-16431756D01*
X75912358Y-16431752D01*
X75734025Y-16302187D01*
X75734024Y-16302186D01*
X75734022Y-16302185D01*
X75671096Y-16270122D01*
X75537606Y-16202104D01*
X75537603Y-16202103D01*
X75327952Y-16133985D01*
X75219086Y-16116742D01*
X75110222Y-16099500D01*
X74889778Y-16099500D01*
X74817201Y-16110995D01*
X74672047Y-16133985D01*
X74462396Y-16202103D01*
X74462393Y-16202104D01*
X74265974Y-16302187D01*
X74087641Y-16431752D01*
X74087636Y-16431756D01*
X73931756Y-16587636D01*
X73931752Y-16587641D01*
X73802187Y-16765974D01*
X73702104Y-16962393D01*
X73702103Y-16962396D01*
X73633985Y-17172047D01*
X73599500Y-17389778D01*
X71400500Y-17389778D01*
X71366015Y-17172049D01*
X71297895Y-16962394D01*
X71297895Y-16962393D01*
X71263237Y-16894375D01*
X71197815Y-16765978D01*
X71181260Y-16743192D01*
X71068247Y-16587641D01*
X71068243Y-16587636D01*
X70912363Y-16431756D01*
X70912358Y-16431752D01*
X70734025Y-16302187D01*
X70734024Y-16302186D01*
X70734022Y-16302185D01*
X70671096Y-16270122D01*
X70537606Y-16202104D01*
X70537603Y-16202103D01*
X70327952Y-16133985D01*
X70219086Y-16116742D01*
X70110222Y-16099500D01*
X69889778Y-16099500D01*
X69817201Y-16110995D01*
X69672047Y-16133985D01*
X69462396Y-16202103D01*
X69462393Y-16202104D01*
X69265974Y-16302187D01*
X69087641Y-16431752D01*
X69087636Y-16431756D01*
X68931756Y-16587636D01*
X68931752Y-16587641D01*
X68802187Y-16765974D01*
X68702104Y-16962393D01*
X68702103Y-16962396D01*
X68633985Y-17172047D01*
X68599500Y-17389778D01*
X68599500Y-17610221D01*
X68633985Y-17827952D01*
X68702103Y-18037603D01*
X68702104Y-18037606D01*
X68802187Y-18234025D01*
X68931752Y-18412358D01*
X68931756Y-18412363D01*
X69063181Y-18543788D01*
X69096666Y-18605111D01*
X69099500Y-18631469D01*
X69099500Y-22107735D01*
X69079815Y-22174774D01*
X69027011Y-22220529D01*
X68957853Y-22230473D01*
X68894297Y-22201448D01*
X68857569Y-22146053D01*
X68797896Y-21962396D01*
X68797895Y-21962393D01*
X68723855Y-21817084D01*
X68697815Y-21765978D01*
X68651685Y-21702485D01*
X68568247Y-21587641D01*
X68568243Y-21587636D01*
X68412363Y-21431756D01*
X68412358Y-21431752D01*
X68234025Y-21302187D01*
X68234024Y-21302186D01*
X68234022Y-21302185D01*
X68171096Y-21270122D01*
X68037606Y-21202104D01*
X68037603Y-21202103D01*
X67827952Y-21133985D01*
X67719086Y-21116742D01*
X67610222Y-21099500D01*
X67389778Y-21099500D01*
X67317201Y-21110995D01*
X67172047Y-21133985D01*
X66962396Y-21202103D01*
X66962393Y-21202104D01*
X66765974Y-21302187D01*
X66587641Y-21431752D01*
X66587636Y-21431756D01*
X66431756Y-21587636D01*
X66431752Y-21587641D01*
X66302187Y-21765974D01*
X66202104Y-21962393D01*
X66202103Y-21962396D01*
X66133985Y-22172047D01*
X66099500Y-22389778D01*
X66099500Y-22610221D01*
X66133985Y-22827952D01*
X66202103Y-23037603D01*
X66202104Y-23037606D01*
X66267437Y-23165826D01*
X66302049Y-23233756D01*
X66302187Y-23234025D01*
X66431752Y-23412358D01*
X66431756Y-23412363D01*
X66587636Y-23568243D01*
X66587641Y-23568247D01*
X66735941Y-23675992D01*
X66765978Y-23697815D01*
X66894375Y-23763237D01*
X66962393Y-23797895D01*
X66962396Y-23797896D01*
X67067221Y-23831955D01*
X67172049Y-23866015D01*
X67389778Y-23900500D01*
X67389779Y-23900500D01*
X67610221Y-23900500D01*
X67610222Y-23900500D01*
X67827951Y-23866015D01*
X68037606Y-23797895D01*
X68234022Y-23697815D01*
X68412365Y-23568242D01*
X68568242Y-23412365D01*
X68697815Y-23234022D01*
X68797895Y-23037606D01*
X68810114Y-23000000D01*
X68857569Y-22853947D01*
X68897006Y-22796271D01*
X68961364Y-22769072D01*
X69030211Y-22780986D01*
X69081687Y-22828230D01*
X69099500Y-22892264D01*
X69099500Y-25075500D01*
X69079815Y-25142539D01*
X69027011Y-25188294D01*
X68975500Y-25199500D01*
X61624362Y-25199500D01*
X61557323Y-25179815D01*
X61536681Y-25163181D01*
X61104175Y-24730675D01*
X61070690Y-24669352D01*
X61075674Y-24599660D01*
X61117546Y-24543727D01*
X61183010Y-24519310D01*
X61230170Y-24525062D01*
X61316202Y-24553015D01*
X61348631Y-24563553D01*
X61581903Y-24600500D01*
X61581908Y-24600500D01*
X61818097Y-24600500D01*
X62051368Y-24563553D01*
X62052870Y-24563065D01*
X62275992Y-24490568D01*
X62486433Y-24383343D01*
X62677510Y-24244517D01*
X62844517Y-24077510D01*
X62983343Y-23886433D01*
X63090568Y-23675992D01*
X63163553Y-23451368D01*
X63163572Y-23451247D01*
X63200500Y-23218097D01*
X63200500Y-22981902D01*
X63163553Y-22748631D01*
X63115259Y-22600000D01*
X63090568Y-22524008D01*
X63090566Y-22524005D01*
X63090566Y-22524003D01*
X62983342Y-22313566D01*
X62922971Y-22230473D01*
X62844517Y-22122490D01*
X62677510Y-21955483D01*
X62486433Y-21816657D01*
X62275996Y-21709433D01*
X62051368Y-21636446D01*
X61818097Y-21599500D01*
X61818092Y-21599500D01*
X61581908Y-21599500D01*
X61581903Y-21599500D01*
X61348631Y-21636446D01*
X61124003Y-21709433D01*
X60913566Y-21816657D01*
X60830044Y-21877340D01*
X60722490Y-21955483D01*
X60722488Y-21955485D01*
X60722487Y-21955485D01*
X60555485Y-22122487D01*
X60555485Y-22122488D01*
X60555483Y-22122490D01*
X60504259Y-22192993D01*
X60416657Y-22313566D01*
X60309433Y-22524003D01*
X60236446Y-22748631D01*
X60199500Y-22981902D01*
X60199500Y-23218097D01*
X60236446Y-23451368D01*
X60257488Y-23516126D01*
X60274423Y-23568247D01*
X60274936Y-23569824D01*
X60276931Y-23639666D01*
X60240851Y-23699499D01*
X60178150Y-23730327D01*
X60108736Y-23722363D01*
X60069324Y-23695824D01*
X56686819Y-20313319D01*
X56653334Y-20251996D01*
X56650500Y-20225638D01*
X56650500Y-19611306D01*
X56650499Y-19611304D01*
X56615896Y-19437341D01*
X56615893Y-19437332D01*
X56548016Y-19273459D01*
X56548009Y-19273446D01*
X56449464Y-19125965D01*
X56449461Y-19125961D01*
X56324038Y-19000538D01*
X56324034Y-19000535D01*
X56176553Y-18901990D01*
X56176540Y-18901983D01*
X56012667Y-18834106D01*
X56012658Y-18834103D01*
X55838694Y-18799500D01*
X55838691Y-18799500D01*
X55661309Y-18799500D01*
X55661306Y-18799500D01*
X55487341Y-18834103D01*
X55487332Y-18834106D01*
X55323459Y-18901983D01*
X55323446Y-18901990D01*
X55175965Y-19000535D01*
X55175961Y-19000538D01*
X55050538Y-19125961D01*
X55050535Y-19125965D01*
X54951990Y-19273446D01*
X54951983Y-19273459D01*
X54884106Y-19437332D01*
X54884103Y-19437341D01*
X54849500Y-19611304D01*
X54849500Y-20738696D01*
X54884103Y-20912658D01*
X54884105Y-20912666D01*
X54918046Y-20994606D01*
X54951987Y-21076547D01*
X54990366Y-21133985D01*
X54994118Y-21139600D01*
X54994121Y-21139606D01*
X55050532Y-21224031D01*
X55050538Y-21224039D01*
X55296602Y-21470103D01*
X55330087Y-21531426D01*
X55325103Y-21601118D01*
X55283231Y-21657051D01*
X55217767Y-21681468D01*
X55170603Y-21675715D01*
X55051248Y-21636934D01*
X54818052Y-21600000D01*
X54581948Y-21600000D01*
X54348752Y-21636934D01*
X54124197Y-21709897D01*
X53913830Y-21817084D01*
X53830894Y-21877340D01*
X54570591Y-22617037D01*
X54507007Y-22634075D01*
X54392993Y-22699901D01*
X54299901Y-22792993D01*
X54234075Y-22907007D01*
X54217037Y-22970591D01*
X53477340Y-22230894D01*
X53417084Y-22313830D01*
X53309897Y-22524197D01*
X53236934Y-22748752D01*
X53200000Y-22981947D01*
X50268053Y-22981947D01*
X51413082Y-21836918D01*
X52260418Y-20989582D01*
X53250000Y-20000000D01*
X53250000Y-17389778D01*
X63599500Y-17389778D01*
X63599500Y-17610221D01*
X63633985Y-17827952D01*
X63702103Y-18037603D01*
X63702104Y-18037606D01*
X63802187Y-18234025D01*
X63931752Y-18412358D01*
X63931756Y-18412363D01*
X64087636Y-18568243D01*
X64087641Y-18568247D01*
X64099499Y-18576862D01*
X64265978Y-18697815D01*
X64394375Y-18763237D01*
X64462393Y-18797895D01*
X64462396Y-18797896D01*
X64567221Y-18831955D01*
X64672049Y-18866015D01*
X64889778Y-18900500D01*
X64889779Y-18900500D01*
X65110221Y-18900500D01*
X65110222Y-18900500D01*
X65327951Y-18866015D01*
X65537606Y-18797895D01*
X65734022Y-18697815D01*
X65912365Y-18568242D01*
X66068242Y-18412365D01*
X66197815Y-18234022D01*
X66297895Y-18037606D01*
X66366015Y-17827951D01*
X66400500Y-17610222D01*
X66400500Y-17389778D01*
X66366015Y-17172049D01*
X66297895Y-16962394D01*
X66297895Y-16962393D01*
X66263237Y-16894375D01*
X66197815Y-16765978D01*
X66181260Y-16743192D01*
X66068247Y-16587641D01*
X66068243Y-16587636D01*
X65912363Y-16431756D01*
X65912358Y-16431752D01*
X65734025Y-16302187D01*
X65734024Y-16302186D01*
X65734022Y-16302185D01*
X65671096Y-16270122D01*
X65537606Y-16202104D01*
X65537603Y-16202103D01*
X65327952Y-16133985D01*
X65219086Y-16116742D01*
X65110222Y-16099500D01*
X64889778Y-16099500D01*
X64817201Y-16110995D01*
X64672047Y-16133985D01*
X64462396Y-16202103D01*
X64462393Y-16202104D01*
X64265974Y-16302187D01*
X64087641Y-16431752D01*
X64087636Y-16431756D01*
X63931756Y-16587636D01*
X63931752Y-16587641D01*
X63802187Y-16765974D01*
X63702104Y-16962393D01*
X63702103Y-16962396D01*
X63633985Y-17172047D01*
X63599500Y-17389778D01*
X53250000Y-17389778D01*
X53250000Y-13551362D01*
X53269685Y-13484323D01*
X53286319Y-13463681D01*
X56381128Y-10368872D01*
X87549500Y-10368872D01*
X87549500Y-10631127D01*
X87576123Y-10833339D01*
X87583730Y-10891116D01*
X87651602Y-11144418D01*
X87651605Y-11144428D01*
X87751953Y-11386690D01*
X87751958Y-11386700D01*
X87883075Y-11613803D01*
X88042718Y-11821851D01*
X88042726Y-11821860D01*
X88228140Y-12007274D01*
X88228148Y-12007281D01*
X88436196Y-12166924D01*
X88663299Y-12298041D01*
X88663309Y-12298046D01*
X88905571Y-12398394D01*
X88905581Y-12398398D01*
X89158884Y-12466270D01*
X89418880Y-12500500D01*
X89418887Y-12500500D01*
X89681113Y-12500500D01*
X89681120Y-12500500D01*
X89941116Y-12466270D01*
X90194419Y-12398398D01*
X90436697Y-12298043D01*
X90663803Y-12166924D01*
X90871851Y-12007282D01*
X90871855Y-12007277D01*
X90871860Y-12007274D01*
X91057274Y-11821860D01*
X91057277Y-11821855D01*
X91057282Y-11821851D01*
X91216924Y-11613803D01*
X91348043Y-11386697D01*
X91448398Y-11144419D01*
X91516270Y-10891116D01*
X91550500Y-10631120D01*
X91550500Y-10368880D01*
X91516270Y-10108884D01*
X91448398Y-9855581D01*
X91448394Y-9855571D01*
X91348046Y-9613309D01*
X91348041Y-9613299D01*
X91216924Y-9386196D01*
X91057281Y-9178148D01*
X91057274Y-9178140D01*
X90871860Y-8992726D01*
X90871851Y-8992718D01*
X90663803Y-8833075D01*
X90436700Y-8701958D01*
X90436690Y-8701953D01*
X90194428Y-8601605D01*
X90194421Y-8601603D01*
X90194419Y-8601602D01*
X89941116Y-8533730D01*
X89883339Y-8526123D01*
X89681127Y-8499500D01*
X89681120Y-8499500D01*
X89418880Y-8499500D01*
X89418872Y-8499500D01*
X89187772Y-8529926D01*
X89158884Y-8533730D01*
X89012367Y-8572989D01*
X88905581Y-8601602D01*
X88905571Y-8601605D01*
X88663309Y-8701953D01*
X88663299Y-8701958D01*
X88436196Y-8833075D01*
X88228148Y-8992718D01*
X88042718Y-9178148D01*
X87883075Y-9386196D01*
X87751958Y-9613299D01*
X87751953Y-9613309D01*
X87651605Y-9855571D01*
X87651602Y-9855581D01*
X87583730Y-10108885D01*
X87549500Y-10368872D01*
X56381128Y-10368872D01*
X64213681Y-2536319D01*
X64275004Y-2502834D01*
X64301362Y-2500000D01*
X97175500Y-2500000D01*
X97242539Y-2519685D01*
G37*
%TD.AperFunction*%
%TD*%
M02*
