M48
; DRILL file {KiCad 9.0.0} date 2025-10-31T12:43:10+0100
; FORMAT={-:-/ absolute / metric / decimal}
; #@! TF.CreationDate,2025-10-31T12:43:10+01:00
; #@! TF.GenerationSoftware,Kicad,Pcbnew,9.0.0
; #@! TF.FileFunction,Plated,1,2,PTH
FMAT,2
METRIC
; #@! TA.AperFunction,Plated,PTH,ViaDrill
T1C0.300
; #@! TA.AperFunction,Plated,PTH,ViaDrill
T2C0.400
; #@! TA.AperFunction,Plated,PTH,ComponentDrill
T3C1.000
; #@! TA.AperFunction,Plated,PTH,ComponentDrill
T4C1.100
; #@! TA.AperFunction,Plated,PTH,ComponentDrill
T5C1.200
; #@! TA.AperFunction,Plated,PTH,ComponentDrill
T6C1.250
; #@! TA.AperFunction,Plated,PTH,ComponentDrill
T7C1.300
; #@! TA.AperFunction,Plated,PTH,ComponentDrill
T8C2.200
%
G90
G05
T1
X70.3Y-10.2
X73.0Y-6.39
T2
X31.7Y-57.4
X31.7Y-59.15
X55.75Y-19.7
X59.25Y-16.4
X61.55Y-10.9
X94.975Y-56.5
X95.0Y-52.5
X95.0Y-59.9
X95.0Y-63.9
T3
X5.7Y-10.5
X5.7Y-16.5
X5.7Y-22.5
X12.7Y-16.5
X22.4Y-67.85
X24.9Y-72.85
X27.4Y-67.85
X29.9Y-72.85
X31.8Y-14.6
X32.4Y-67.85
X34.5Y-22.5
X34.9Y-72.85
X37.4Y-67.85
X39.9Y-72.85
X51.25Y-51.0
X51.25Y-76.0
X53.79Y-51.0
X53.79Y-76.0
X54.7Y-23.1
X56.33Y-51.0
X56.33Y-76.0
X58.87Y-51.0
X58.87Y-76.0
X61.41Y-51.0
X61.41Y-76.0
X61.7Y-23.1
X63.95Y-51.0
X63.95Y-76.0
X65.0Y-17.5
X66.49Y-51.0
X66.49Y-76.0
X67.5Y-22.5
X69.03Y-51.0
X69.03Y-76.0
X70.0Y-17.5
X71.57Y-51.0
X71.57Y-76.0
X72.5Y-22.5
X74.11Y-51.0
X74.11Y-76.0
X75.0Y-17.5
X76.65Y-51.0
X76.65Y-76.0
X77.5Y-22.5
X79.19Y-51.0
X79.19Y-76.0
X80.0Y-17.5
X81.73Y-51.0
X81.73Y-76.0
X82.5Y-22.5
X84.27Y-51.0
X84.27Y-76.0
X86.81Y-51.0
X86.81Y-76.0
T4
X39.16Y-21.63
X41.7Y-21.63
X44.24Y-21.63
T5
X5.7Y-30.45
X5.7Y-37.2
T6
X98.075Y-43.66
X98.075Y-46.2
X98.075Y-48.74
T7
X16.95Y-16.5
X16.95Y-22.3
X21.7Y-3.6
X21.7Y-9.4
X29.65Y-16.5
X29.65Y-22.3
X34.4Y-3.6
X34.4Y-9.4
T8
X81.7Y-66.2
X81.7Y-71.7
M30
