%TF.GenerationSoftware,KiCad,Pcbnew,9.0.0*%
%TF.CreationDate,2025-10-31T12:43:10+01:00*%
%TF.ProjectId,popcorn_roaster,706f7063-6f72-46e5-9f72-6f6173746572,rev?*%
%TF.SameCoordinates,Original*%
%TF.FileFunction,Drillmap*%
%TF.FilePolarity,Positive*%
%FSLAX45Y45*%
G04 Gerber Fmt 4.5, Leading zero omitted, Abs format (unit mm)*
G04 Created by KiCad (PCBNEW 9.0.0) date 2025-10-31 12:43:10*
%MOMM*%
%LPD*%
G01*
G04 APERTURE LIST*
%ADD10C,0.050000*%
%ADD11C,0.200000*%
%ADD12C,0.350000*%
G04 APERTURE END LIST*
D10*
X9780000Y-7340000D02*
G75*
G02*
X10130000Y-6990000I350000J0D01*
G01*
X800000Y-450000D02*
G75*
G02*
X450000Y-800000I-350000J0D01*
G01*
X10580000Y-800000D02*
X10580000Y-6990000D01*
X10580000Y-6990000D02*
X10130000Y-6990000D01*
X800000Y-450000D02*
X800000Y0D01*
X450000Y-6990000D02*
G75*
G02*
X800000Y-7340000I0J-350000D01*
G01*
X0Y-800000D02*
X0Y-6990000D01*
X10130000Y-800000D02*
G75*
G02*
X9780000Y-450000I0J350000D01*
G01*
X0Y-800000D02*
X450000Y-800000D01*
X800000Y-7790000D02*
X800000Y-7340000D01*
X9780000Y-7340000D02*
X9780000Y-7790000D01*
X10130000Y-800000D02*
X10580000Y-800000D01*
X800000Y-7790000D02*
X9780000Y-7790000D01*
X450000Y-6990000D02*
X0Y-6990000D01*
X800000Y0D02*
X9780000Y0D01*
X9780000Y0D02*
X9780000Y-450000D01*
D11*
D12*
X1450000Y-875000D02*
X1800000Y-1225000D01*
X1800000Y-875000D02*
X1450000Y-1225000D01*
X1450000Y-6565000D02*
X1800000Y-6915000D01*
X1800000Y-6565000D02*
X1450000Y-6915000D01*
X3995000Y-322000D02*
X4345000Y-672000D01*
X4345000Y-322000D02*
X3995000Y-672000D01*
X8780000Y-875000D02*
X9130000Y-1225000D01*
X9130000Y-875000D02*
X8780000Y-1225000D01*
X8780000Y-6565000D02*
X9130000Y-6915000D01*
X9130000Y-6565000D02*
X8780000Y-6915000D01*
X9225000Y-3225000D02*
X9575000Y-3575000D01*
X9575000Y-3225000D02*
X9225000Y-3575000D01*
X9225000Y-7165000D02*
X9575000Y-7515000D01*
X9575000Y-7165000D02*
X9225000Y-7515000D01*
D11*
X258277Y-8103984D02*
X258277Y-7903984D01*
X258277Y-7903984D02*
X305896Y-7903984D01*
X305896Y-7903984D02*
X334467Y-7913508D01*
X334467Y-7913508D02*
X353515Y-7932555D01*
X353515Y-7932555D02*
X363039Y-7951603D01*
X363039Y-7951603D02*
X372562Y-7989698D01*
X372562Y-7989698D02*
X372562Y-8018269D01*
X372562Y-8018269D02*
X363039Y-8056365D01*
X363039Y-8056365D02*
X353515Y-8075412D01*
X353515Y-8075412D02*
X334467Y-8094460D01*
X334467Y-8094460D02*
X305896Y-8103984D01*
X305896Y-8103984D02*
X258277Y-8103984D01*
X458277Y-8103984D02*
X458277Y-7970650D01*
X458277Y-8008746D02*
X467801Y-7989698D01*
X467801Y-7989698D02*
X477324Y-7980174D01*
X477324Y-7980174D02*
X496372Y-7970650D01*
X496372Y-7970650D02*
X515420Y-7970650D01*
X582086Y-8103984D02*
X582086Y-7970650D01*
X582086Y-7903984D02*
X572563Y-7913508D01*
X572563Y-7913508D02*
X582086Y-7923031D01*
X582086Y-7923031D02*
X591610Y-7913508D01*
X591610Y-7913508D02*
X582086Y-7903984D01*
X582086Y-7903984D02*
X582086Y-7923031D01*
X705896Y-8103984D02*
X686848Y-8094460D01*
X686848Y-8094460D02*
X677324Y-8075412D01*
X677324Y-8075412D02*
X677324Y-7903984D01*
X810658Y-8103984D02*
X791610Y-8094460D01*
X791610Y-8094460D02*
X782086Y-8075412D01*
X782086Y-8075412D02*
X782086Y-7903984D01*
X1039229Y-8103984D02*
X1039229Y-7903984D01*
X1039229Y-7903984D02*
X1105896Y-8046841D01*
X1105896Y-8046841D02*
X1172563Y-7903984D01*
X1172563Y-7903984D02*
X1172563Y-8103984D01*
X1353515Y-8103984D02*
X1353515Y-7999222D01*
X1353515Y-7999222D02*
X1343991Y-7980174D01*
X1343991Y-7980174D02*
X1324944Y-7970650D01*
X1324944Y-7970650D02*
X1286848Y-7970650D01*
X1286848Y-7970650D02*
X1267801Y-7980174D01*
X1353515Y-8094460D02*
X1334467Y-8103984D01*
X1334467Y-8103984D02*
X1286848Y-8103984D01*
X1286848Y-8103984D02*
X1267801Y-8094460D01*
X1267801Y-8094460D02*
X1258277Y-8075412D01*
X1258277Y-8075412D02*
X1258277Y-8056365D01*
X1258277Y-8056365D02*
X1267801Y-8037317D01*
X1267801Y-8037317D02*
X1286848Y-8027793D01*
X1286848Y-8027793D02*
X1334467Y-8027793D01*
X1334467Y-8027793D02*
X1353515Y-8018269D01*
X1448753Y-7970650D02*
X1448753Y-8170650D01*
X1448753Y-7980174D02*
X1467801Y-7970650D01*
X1467801Y-7970650D02*
X1505896Y-7970650D01*
X1505896Y-7970650D02*
X1524943Y-7980174D01*
X1524943Y-7980174D02*
X1534467Y-7989698D01*
X1534467Y-7989698D02*
X1543991Y-8008746D01*
X1543991Y-8008746D02*
X1543991Y-8065888D01*
X1543991Y-8065888D02*
X1534467Y-8084936D01*
X1534467Y-8084936D02*
X1524943Y-8094460D01*
X1524943Y-8094460D02*
X1505896Y-8103984D01*
X1505896Y-8103984D02*
X1467801Y-8103984D01*
X1467801Y-8103984D02*
X1448753Y-8094460D01*
X1629705Y-8084936D02*
X1639229Y-8094460D01*
X1639229Y-8094460D02*
X1629705Y-8103984D01*
X1629705Y-8103984D02*
X1620182Y-8094460D01*
X1620182Y-8094460D02*
X1629705Y-8084936D01*
X1629705Y-8084936D02*
X1629705Y-8103984D01*
X1629705Y-7980174D02*
X1639229Y-7989698D01*
X1639229Y-7989698D02*
X1629705Y-7999222D01*
X1629705Y-7999222D02*
X1620182Y-7989698D01*
X1620182Y-7989698D02*
X1629705Y-7980174D01*
X1629705Y-7980174D02*
X1629705Y-7999222D01*
X-202500Y-8332500D02*
X-2500Y-8532500D01*
X-2500Y-8332500D02*
X-202500Y-8532500D01*
X239229Y-8323984D02*
X363039Y-8323984D01*
X363039Y-8323984D02*
X296372Y-8400174D01*
X296372Y-8400174D02*
X324944Y-8400174D01*
X324944Y-8400174D02*
X343991Y-8409698D01*
X343991Y-8409698D02*
X353515Y-8419222D01*
X353515Y-8419222D02*
X363039Y-8438270D01*
X363039Y-8438270D02*
X363039Y-8485889D01*
X363039Y-8485889D02*
X353515Y-8504936D01*
X353515Y-8504936D02*
X343991Y-8514460D01*
X343991Y-8514460D02*
X324944Y-8523984D01*
X324944Y-8523984D02*
X267801Y-8523984D01*
X267801Y-8523984D02*
X248753Y-8514460D01*
X248753Y-8514460D02*
X239229Y-8504936D01*
X448753Y-8504936D02*
X458277Y-8514460D01*
X458277Y-8514460D02*
X448753Y-8523984D01*
X448753Y-8523984D02*
X439229Y-8514460D01*
X439229Y-8514460D02*
X448753Y-8504936D01*
X448753Y-8504936D02*
X448753Y-8523984D01*
X639229Y-8323984D02*
X543991Y-8323984D01*
X543991Y-8323984D02*
X534467Y-8419222D01*
X534467Y-8419222D02*
X543991Y-8409698D01*
X543991Y-8409698D02*
X563039Y-8400174D01*
X563039Y-8400174D02*
X610658Y-8400174D01*
X610658Y-8400174D02*
X629705Y-8409698D01*
X629705Y-8409698D02*
X639229Y-8419222D01*
X639229Y-8419222D02*
X648753Y-8438270D01*
X648753Y-8438270D02*
X648753Y-8485889D01*
X648753Y-8485889D02*
X639229Y-8504936D01*
X639229Y-8504936D02*
X629705Y-8514460D01*
X629705Y-8514460D02*
X610658Y-8523984D01*
X610658Y-8523984D02*
X563039Y-8523984D01*
X563039Y-8523984D02*
X543991Y-8514460D01*
X543991Y-8514460D02*
X534467Y-8504936D01*
X772562Y-8323984D02*
X791610Y-8323984D01*
X791610Y-8323984D02*
X810658Y-8333508D01*
X810658Y-8333508D02*
X820182Y-8343031D01*
X820182Y-8343031D02*
X829705Y-8362079D01*
X829705Y-8362079D02*
X839229Y-8400174D01*
X839229Y-8400174D02*
X839229Y-8447793D01*
X839229Y-8447793D02*
X829705Y-8485889D01*
X829705Y-8485889D02*
X820182Y-8504936D01*
X820182Y-8504936D02*
X810658Y-8514460D01*
X810658Y-8514460D02*
X791610Y-8523984D01*
X791610Y-8523984D02*
X772562Y-8523984D01*
X772562Y-8523984D02*
X753515Y-8514460D01*
X753515Y-8514460D02*
X743991Y-8504936D01*
X743991Y-8504936D02*
X734467Y-8485889D01*
X734467Y-8485889D02*
X724943Y-8447793D01*
X724943Y-8447793D02*
X724943Y-8400174D01*
X724943Y-8400174D02*
X734467Y-8362079D01*
X734467Y-8362079D02*
X743991Y-8343031D01*
X743991Y-8343031D02*
X753515Y-8333508D01*
X753515Y-8333508D02*
X772562Y-8323984D01*
X963039Y-8323984D02*
X982086Y-8323984D01*
X982086Y-8323984D02*
X1001134Y-8333508D01*
X1001134Y-8333508D02*
X1010658Y-8343031D01*
X1010658Y-8343031D02*
X1020182Y-8362079D01*
X1020182Y-8362079D02*
X1029705Y-8400174D01*
X1029705Y-8400174D02*
X1029705Y-8447793D01*
X1029705Y-8447793D02*
X1020182Y-8485889D01*
X1020182Y-8485889D02*
X1010658Y-8504936D01*
X1010658Y-8504936D02*
X1001134Y-8514460D01*
X1001134Y-8514460D02*
X982086Y-8523984D01*
X982086Y-8523984D02*
X963039Y-8523984D01*
X963039Y-8523984D02*
X943991Y-8514460D01*
X943991Y-8514460D02*
X934467Y-8504936D01*
X934467Y-8504936D02*
X924943Y-8485889D01*
X924943Y-8485889D02*
X915420Y-8447793D01*
X915420Y-8447793D02*
X915420Y-8400174D01*
X915420Y-8400174D02*
X924943Y-8362079D01*
X924943Y-8362079D02*
X934467Y-8343031D01*
X934467Y-8343031D02*
X943991Y-8333508D01*
X943991Y-8333508D02*
X963039Y-8323984D01*
X1115420Y-8523984D02*
X1115420Y-8390650D01*
X1115420Y-8409698D02*
X1124944Y-8400174D01*
X1124944Y-8400174D02*
X1143991Y-8390650D01*
X1143991Y-8390650D02*
X1172563Y-8390650D01*
X1172563Y-8390650D02*
X1191610Y-8400174D01*
X1191610Y-8400174D02*
X1201134Y-8419222D01*
X1201134Y-8419222D02*
X1201134Y-8523984D01*
X1201134Y-8419222D02*
X1210658Y-8400174D01*
X1210658Y-8400174D02*
X1229705Y-8390650D01*
X1229705Y-8390650D02*
X1258277Y-8390650D01*
X1258277Y-8390650D02*
X1277325Y-8400174D01*
X1277325Y-8400174D02*
X1286848Y-8419222D01*
X1286848Y-8419222D02*
X1286848Y-8523984D01*
X1382086Y-8523984D02*
X1382086Y-8390650D01*
X1382086Y-8409698D02*
X1391610Y-8400174D01*
X1391610Y-8400174D02*
X1410658Y-8390650D01*
X1410658Y-8390650D02*
X1439229Y-8390650D01*
X1439229Y-8390650D02*
X1458277Y-8400174D01*
X1458277Y-8400174D02*
X1467801Y-8419222D01*
X1467801Y-8419222D02*
X1467801Y-8523984D01*
X1467801Y-8419222D02*
X1477324Y-8400174D01*
X1477324Y-8400174D02*
X1496372Y-8390650D01*
X1496372Y-8390650D02*
X1524943Y-8390650D01*
X1524943Y-8390650D02*
X1543991Y-8400174D01*
X1543991Y-8400174D02*
X1553515Y-8419222D01*
X1553515Y-8419222D02*
X1553515Y-8523984D01*
X1943991Y-8314460D02*
X1772563Y-8571603D01*
X2201134Y-8323984D02*
X2220182Y-8323984D01*
X2220182Y-8323984D02*
X2239229Y-8333508D01*
X2239229Y-8333508D02*
X2248753Y-8343031D01*
X2248753Y-8343031D02*
X2258277Y-8362079D01*
X2258277Y-8362079D02*
X2267801Y-8400174D01*
X2267801Y-8400174D02*
X2267801Y-8447793D01*
X2267801Y-8447793D02*
X2258277Y-8485889D01*
X2258277Y-8485889D02*
X2248753Y-8504936D01*
X2248753Y-8504936D02*
X2239229Y-8514460D01*
X2239229Y-8514460D02*
X2220182Y-8523984D01*
X2220182Y-8523984D02*
X2201134Y-8523984D01*
X2201134Y-8523984D02*
X2182087Y-8514460D01*
X2182087Y-8514460D02*
X2172563Y-8504936D01*
X2172563Y-8504936D02*
X2163039Y-8485889D01*
X2163039Y-8485889D02*
X2153515Y-8447793D01*
X2153515Y-8447793D02*
X2153515Y-8400174D01*
X2153515Y-8400174D02*
X2163039Y-8362079D01*
X2163039Y-8362079D02*
X2172563Y-8343031D01*
X2172563Y-8343031D02*
X2182087Y-8333508D01*
X2182087Y-8333508D02*
X2201134Y-8323984D01*
X2353515Y-8504936D02*
X2363039Y-8514460D01*
X2363039Y-8514460D02*
X2353515Y-8523984D01*
X2353515Y-8523984D02*
X2343991Y-8514460D01*
X2343991Y-8514460D02*
X2353515Y-8504936D01*
X2353515Y-8504936D02*
X2353515Y-8523984D01*
X2553515Y-8523984D02*
X2439229Y-8523984D01*
X2496372Y-8523984D02*
X2496372Y-8323984D01*
X2496372Y-8323984D02*
X2477325Y-8352555D01*
X2477325Y-8352555D02*
X2458277Y-8371603D01*
X2458277Y-8371603D02*
X2439229Y-8381127D01*
X2620182Y-8323984D02*
X2743991Y-8323984D01*
X2743991Y-8323984D02*
X2677325Y-8400174D01*
X2677325Y-8400174D02*
X2705896Y-8400174D01*
X2705896Y-8400174D02*
X2724944Y-8409698D01*
X2724944Y-8409698D02*
X2734468Y-8419222D01*
X2734468Y-8419222D02*
X2743991Y-8438270D01*
X2743991Y-8438270D02*
X2743991Y-8485889D01*
X2743991Y-8485889D02*
X2734468Y-8504936D01*
X2734468Y-8504936D02*
X2724944Y-8514460D01*
X2724944Y-8514460D02*
X2705896Y-8523984D01*
X2705896Y-8523984D02*
X2648753Y-8523984D01*
X2648753Y-8523984D02*
X2629706Y-8514460D01*
X2629706Y-8514460D02*
X2620182Y-8504936D01*
X2810658Y-8323984D02*
X2943991Y-8323984D01*
X2943991Y-8323984D02*
X2858277Y-8523984D01*
X3048753Y-8409698D02*
X3029706Y-8400174D01*
X3029706Y-8400174D02*
X3020182Y-8390650D01*
X3020182Y-8390650D02*
X3010658Y-8371603D01*
X3010658Y-8371603D02*
X3010658Y-8362079D01*
X3010658Y-8362079D02*
X3020182Y-8343031D01*
X3020182Y-8343031D02*
X3029706Y-8333508D01*
X3029706Y-8333508D02*
X3048753Y-8323984D01*
X3048753Y-8323984D02*
X3086848Y-8323984D01*
X3086848Y-8323984D02*
X3105896Y-8333508D01*
X3105896Y-8333508D02*
X3115420Y-8343031D01*
X3115420Y-8343031D02*
X3124944Y-8362079D01*
X3124944Y-8362079D02*
X3124944Y-8371603D01*
X3124944Y-8371603D02*
X3115420Y-8390650D01*
X3115420Y-8390650D02*
X3105896Y-8400174D01*
X3105896Y-8400174D02*
X3086848Y-8409698D01*
X3086848Y-8409698D02*
X3048753Y-8409698D01*
X3048753Y-8409698D02*
X3029706Y-8419222D01*
X3029706Y-8419222D02*
X3020182Y-8428746D01*
X3020182Y-8428746D02*
X3010658Y-8447793D01*
X3010658Y-8447793D02*
X3010658Y-8485889D01*
X3010658Y-8485889D02*
X3020182Y-8504936D01*
X3020182Y-8504936D02*
X3029706Y-8514460D01*
X3029706Y-8514460D02*
X3048753Y-8523984D01*
X3048753Y-8523984D02*
X3086848Y-8523984D01*
X3086848Y-8523984D02*
X3105896Y-8514460D01*
X3105896Y-8514460D02*
X3115420Y-8504936D01*
X3115420Y-8504936D02*
X3124944Y-8485889D01*
X3124944Y-8485889D02*
X3124944Y-8447793D01*
X3124944Y-8447793D02*
X3115420Y-8428746D01*
X3115420Y-8428746D02*
X3105896Y-8419222D01*
X3105896Y-8419222D02*
X3086848Y-8409698D01*
X3201134Y-8323984D02*
X3201134Y-8362079D01*
X3277325Y-8323984D02*
X3277325Y-8362079D01*
X3572563Y-8600174D02*
X3563039Y-8590650D01*
X3563039Y-8590650D02*
X3543991Y-8562079D01*
X3543991Y-8562079D02*
X3534468Y-8543031D01*
X3534468Y-8543031D02*
X3524944Y-8514460D01*
X3524944Y-8514460D02*
X3515420Y-8466841D01*
X3515420Y-8466841D02*
X3515420Y-8428746D01*
X3515420Y-8428746D02*
X3524944Y-8381127D01*
X3524944Y-8381127D02*
X3534468Y-8352555D01*
X3534468Y-8352555D02*
X3543991Y-8333508D01*
X3543991Y-8333508D02*
X3563039Y-8304936D01*
X3563039Y-8304936D02*
X3572563Y-8295412D01*
X3629706Y-8323984D02*
X3763039Y-8323984D01*
X3763039Y-8323984D02*
X3677325Y-8523984D01*
X3991610Y-8523984D02*
X3991610Y-8323984D01*
X4077325Y-8523984D02*
X4077325Y-8419222D01*
X4077325Y-8419222D02*
X4067801Y-8400174D01*
X4067801Y-8400174D02*
X4048753Y-8390650D01*
X4048753Y-8390650D02*
X4020182Y-8390650D01*
X4020182Y-8390650D02*
X4001134Y-8400174D01*
X4001134Y-8400174D02*
X3991610Y-8409698D01*
X4201134Y-8523984D02*
X4182087Y-8514460D01*
X4182087Y-8514460D02*
X4172563Y-8504936D01*
X4172563Y-8504936D02*
X4163039Y-8485889D01*
X4163039Y-8485889D02*
X4163039Y-8428746D01*
X4163039Y-8428746D02*
X4172563Y-8409698D01*
X4172563Y-8409698D02*
X4182087Y-8400174D01*
X4182087Y-8400174D02*
X4201134Y-8390650D01*
X4201134Y-8390650D02*
X4229706Y-8390650D01*
X4229706Y-8390650D02*
X4248753Y-8400174D01*
X4248753Y-8400174D02*
X4258277Y-8409698D01*
X4258277Y-8409698D02*
X4267801Y-8428746D01*
X4267801Y-8428746D02*
X4267801Y-8485889D01*
X4267801Y-8485889D02*
X4258277Y-8504936D01*
X4258277Y-8504936D02*
X4248753Y-8514460D01*
X4248753Y-8514460D02*
X4229706Y-8523984D01*
X4229706Y-8523984D02*
X4201134Y-8523984D01*
X4382087Y-8523984D02*
X4363039Y-8514460D01*
X4363039Y-8514460D02*
X4353515Y-8495412D01*
X4353515Y-8495412D02*
X4353515Y-8323984D01*
X4534468Y-8514460D02*
X4515420Y-8523984D01*
X4515420Y-8523984D02*
X4477325Y-8523984D01*
X4477325Y-8523984D02*
X4458277Y-8514460D01*
X4458277Y-8514460D02*
X4448753Y-8495412D01*
X4448753Y-8495412D02*
X4448753Y-8419222D01*
X4448753Y-8419222D02*
X4458277Y-8400174D01*
X4458277Y-8400174D02*
X4477325Y-8390650D01*
X4477325Y-8390650D02*
X4515420Y-8390650D01*
X4515420Y-8390650D02*
X4534468Y-8400174D01*
X4534468Y-8400174D02*
X4543992Y-8419222D01*
X4543992Y-8419222D02*
X4543992Y-8438270D01*
X4543992Y-8438270D02*
X4448753Y-8457317D01*
X4620182Y-8514460D02*
X4639230Y-8523984D01*
X4639230Y-8523984D02*
X4677325Y-8523984D01*
X4677325Y-8523984D02*
X4696373Y-8514460D01*
X4696373Y-8514460D02*
X4705896Y-8495412D01*
X4705896Y-8495412D02*
X4705896Y-8485889D01*
X4705896Y-8485889D02*
X4696373Y-8466841D01*
X4696373Y-8466841D02*
X4677325Y-8457317D01*
X4677325Y-8457317D02*
X4648753Y-8457317D01*
X4648753Y-8457317D02*
X4629706Y-8447793D01*
X4629706Y-8447793D02*
X4620182Y-8428746D01*
X4620182Y-8428746D02*
X4620182Y-8419222D01*
X4620182Y-8419222D02*
X4629706Y-8400174D01*
X4629706Y-8400174D02*
X4648753Y-8390650D01*
X4648753Y-8390650D02*
X4677325Y-8390650D01*
X4677325Y-8390650D02*
X4696373Y-8400174D01*
X4772563Y-8600174D02*
X4782087Y-8590650D01*
X4782087Y-8590650D02*
X4801134Y-8562079D01*
X4801134Y-8562079D02*
X4810658Y-8543031D01*
X4810658Y-8543031D02*
X4820182Y-8514460D01*
X4820182Y-8514460D02*
X4829706Y-8466841D01*
X4829706Y-8466841D02*
X4829706Y-8428746D01*
X4829706Y-8428746D02*
X4820182Y-8381127D01*
X4820182Y-8381127D02*
X4810658Y-8352555D01*
X4810658Y-8352555D02*
X4801134Y-8333508D01*
X4801134Y-8333508D02*
X4782087Y-8304936D01*
X4782087Y-8304936D02*
X4772563Y-8295412D01*
X5134468Y-8600174D02*
X5124944Y-8590650D01*
X5124944Y-8590650D02*
X5105896Y-8562079D01*
X5105896Y-8562079D02*
X5096373Y-8543031D01*
X5096373Y-8543031D02*
X5086849Y-8514460D01*
X5086849Y-8514460D02*
X5077325Y-8466841D01*
X5077325Y-8466841D02*
X5077325Y-8428746D01*
X5077325Y-8428746D02*
X5086849Y-8381127D01*
X5086849Y-8381127D02*
X5096373Y-8352555D01*
X5096373Y-8352555D02*
X5105896Y-8333508D01*
X5105896Y-8333508D02*
X5124944Y-8304936D01*
X5124944Y-8304936D02*
X5134468Y-8295412D01*
X5210658Y-8390650D02*
X5210658Y-8523984D01*
X5210658Y-8409698D02*
X5220182Y-8400174D01*
X5220182Y-8400174D02*
X5239230Y-8390650D01*
X5239230Y-8390650D02*
X5267801Y-8390650D01*
X5267801Y-8390650D02*
X5286849Y-8400174D01*
X5286849Y-8400174D02*
X5296373Y-8419222D01*
X5296373Y-8419222D02*
X5296373Y-8523984D01*
X5420182Y-8523984D02*
X5401134Y-8514460D01*
X5401134Y-8514460D02*
X5391611Y-8504936D01*
X5391611Y-8504936D02*
X5382087Y-8485889D01*
X5382087Y-8485889D02*
X5382087Y-8428746D01*
X5382087Y-8428746D02*
X5391611Y-8409698D01*
X5391611Y-8409698D02*
X5401134Y-8400174D01*
X5401134Y-8400174D02*
X5420182Y-8390650D01*
X5420182Y-8390650D02*
X5448754Y-8390650D01*
X5448754Y-8390650D02*
X5467801Y-8400174D01*
X5467801Y-8400174D02*
X5477325Y-8409698D01*
X5477325Y-8409698D02*
X5486849Y-8428746D01*
X5486849Y-8428746D02*
X5486849Y-8485889D01*
X5486849Y-8485889D02*
X5477325Y-8504936D01*
X5477325Y-8504936D02*
X5467801Y-8514460D01*
X5467801Y-8514460D02*
X5448754Y-8523984D01*
X5448754Y-8523984D02*
X5420182Y-8523984D01*
X5543992Y-8390650D02*
X5620182Y-8390650D01*
X5572563Y-8323984D02*
X5572563Y-8495412D01*
X5572563Y-8495412D02*
X5582087Y-8514460D01*
X5582087Y-8514460D02*
X5601134Y-8523984D01*
X5601134Y-8523984D02*
X5620182Y-8523984D01*
X5839230Y-8390650D02*
X5839230Y-8590650D01*
X5839230Y-8400174D02*
X5858277Y-8390650D01*
X5858277Y-8390650D02*
X5896373Y-8390650D01*
X5896373Y-8390650D02*
X5915420Y-8400174D01*
X5915420Y-8400174D02*
X5924944Y-8409698D01*
X5924944Y-8409698D02*
X5934468Y-8428746D01*
X5934468Y-8428746D02*
X5934468Y-8485889D01*
X5934468Y-8485889D02*
X5924944Y-8504936D01*
X5924944Y-8504936D02*
X5915420Y-8514460D01*
X5915420Y-8514460D02*
X5896373Y-8523984D01*
X5896373Y-8523984D02*
X5858277Y-8523984D01*
X5858277Y-8523984D02*
X5839230Y-8514460D01*
X6048753Y-8523984D02*
X6029706Y-8514460D01*
X6029706Y-8514460D02*
X6020182Y-8495412D01*
X6020182Y-8495412D02*
X6020182Y-8323984D01*
X6210658Y-8523984D02*
X6210658Y-8419222D01*
X6210658Y-8419222D02*
X6201134Y-8400174D01*
X6201134Y-8400174D02*
X6182087Y-8390650D01*
X6182087Y-8390650D02*
X6143992Y-8390650D01*
X6143992Y-8390650D02*
X6124944Y-8400174D01*
X6210658Y-8514460D02*
X6191611Y-8523984D01*
X6191611Y-8523984D02*
X6143992Y-8523984D01*
X6143992Y-8523984D02*
X6124944Y-8514460D01*
X6124944Y-8514460D02*
X6115420Y-8495412D01*
X6115420Y-8495412D02*
X6115420Y-8476365D01*
X6115420Y-8476365D02*
X6124944Y-8457317D01*
X6124944Y-8457317D02*
X6143992Y-8447793D01*
X6143992Y-8447793D02*
X6191611Y-8447793D01*
X6191611Y-8447793D02*
X6210658Y-8438270D01*
X6277325Y-8390650D02*
X6353515Y-8390650D01*
X6305896Y-8323984D02*
X6305896Y-8495412D01*
X6305896Y-8495412D02*
X6315420Y-8514460D01*
X6315420Y-8514460D02*
X6334468Y-8523984D01*
X6334468Y-8523984D02*
X6353515Y-8523984D01*
X6496373Y-8514460D02*
X6477325Y-8523984D01*
X6477325Y-8523984D02*
X6439230Y-8523984D01*
X6439230Y-8523984D02*
X6420182Y-8514460D01*
X6420182Y-8514460D02*
X6410658Y-8495412D01*
X6410658Y-8495412D02*
X6410658Y-8419222D01*
X6410658Y-8419222D02*
X6420182Y-8400174D01*
X6420182Y-8400174D02*
X6439230Y-8390650D01*
X6439230Y-8390650D02*
X6477325Y-8390650D01*
X6477325Y-8390650D02*
X6496373Y-8400174D01*
X6496373Y-8400174D02*
X6505896Y-8419222D01*
X6505896Y-8419222D02*
X6505896Y-8438270D01*
X6505896Y-8438270D02*
X6410658Y-8457317D01*
X6677325Y-8523984D02*
X6677325Y-8323984D01*
X6677325Y-8514460D02*
X6658277Y-8523984D01*
X6658277Y-8523984D02*
X6620182Y-8523984D01*
X6620182Y-8523984D02*
X6601134Y-8514460D01*
X6601134Y-8514460D02*
X6591611Y-8504936D01*
X6591611Y-8504936D02*
X6582087Y-8485889D01*
X6582087Y-8485889D02*
X6582087Y-8428746D01*
X6582087Y-8428746D02*
X6591611Y-8409698D01*
X6591611Y-8409698D02*
X6601134Y-8400174D01*
X6601134Y-8400174D02*
X6620182Y-8390650D01*
X6620182Y-8390650D02*
X6658277Y-8390650D01*
X6658277Y-8390650D02*
X6677325Y-8400174D01*
X6753515Y-8600174D02*
X6763039Y-8590650D01*
X6763039Y-8590650D02*
X6782087Y-8562079D01*
X6782087Y-8562079D02*
X6791611Y-8543031D01*
X6791611Y-8543031D02*
X6801134Y-8514460D01*
X6801134Y-8514460D02*
X6810658Y-8466841D01*
X6810658Y-8466841D02*
X6810658Y-8428746D01*
X6810658Y-8428746D02*
X6801134Y-8381127D01*
X6801134Y-8381127D02*
X6791611Y-8352555D01*
X6791611Y-8352555D02*
X6782087Y-8333508D01*
X6782087Y-8333508D02*
X6763039Y-8304936D01*
X6763039Y-8304936D02*
X6753515Y-8295412D01*
M02*
